<svg id="Ñëîé_1" data-name="Ñëîé 1" xmlns="http://www.w3.org/2000/svg" xmlns:xlink="http://www.w3.org/1999/xlink" viewBox="0 0 678.74 368.27"><defs><style>.cls-1{fill:url(#linear-gradient);}.cls-2{fill:url(#linear-gradient-2);}.cls-3{fill:url(#linear-gradient-3);}.cls-4{fill:url(#linear-gradient-4);}.cls-5{fill:url(#linear-gradient-5);}.cls-6{fill:url(#linear-gradient-6);}.cls-7{fill:url(#linear-gradient-7);}.cls-8{fill:url(#linear-gradient-8);}.cls-9{fill:url(#linear-gradient-9);}.cls-10{fill:url(#linear-gradient-10);}.cls-11{fill:url(#linear-gradient-11);}.cls-12{fill:url(#linear-gradient-12);}.cls-13{fill:url(#linear-gradient-13);}.cls-14{fill:url(#linear-gradient-14);}.cls-15{fill:url(#linear-gradient-15);}.cls-16{fill:url(#linear-gradient-16);}.cls-17{fill:url(#linear-gradient-17);}.cls-18{fill:url(#linear-gradient-18);}.cls-19{fill:url(#linear-gradient-19);}.cls-20{fill:url(#linear-gradient-20);}.cls-21{fill:url(#linear-gradient-21);}.cls-22{fill:url(#linear-gradient-22);}.cls-23{fill:url(#linear-gradient-23);}.cls-24{fill:url(#linear-gradient-24);}.cls-25{fill:url(#linear-gradient-25);}.cls-26{fill:url(#linear-gradient-26);}.cls-27{fill:url(#linear-gradient-27);}.cls-28{fill:url(#linear-gradient-28);}.cls-29{fill:url(#linear-gradient-29);}.cls-30{fill:url(#linear-gradient-30);}.cls-31{fill:url(#linear-gradient-31);}.cls-32{fill:url(#linear-gradient-32);}.cls-33{fill:url(#linear-gradient-33);}.cls-34{fill:url(#linear-gradient-34);}.cls-35{fill:url(#linear-gradient-35);}.cls-36{fill:url(#linear-gradient-36);}.cls-37{fill:url(#linear-gradient-37);}.cls-38{fill:url(#linear-gradient-38);}.cls-39{fill:url(#linear-gradient-39);}.cls-40{fill:url(#linear-gradient-40);}.cls-41{fill:url(#linear-gradient-41);}.cls-42{fill:url(#linear-gradient-42);}.cls-43{fill:url(#linear-gradient-43);}.cls-44{fill:url(#linear-gradient-44);}.cls-45{fill:url(#linear-gradient-45);}.cls-46{fill:url(#linear-gradient-46);}.cls-47{fill:url(#linear-gradient-47);}.cls-48{fill:url(#linear-gradient-48);}.cls-49{fill:url(#linear-gradient-49);}.cls-50{fill:url(#linear-gradient-50);}.cls-51{fill:url(#linear-gradient-51);}.cls-52{fill:url(#linear-gradient-52);}.cls-53{fill:url(#linear-gradient-53);}.cls-54{fill:url(#linear-gradient-54);}.cls-55{fill:url(#linear-gradient-55);}.cls-56{fill:url(#linear-gradient-56);}.cls-57{fill:url(#linear-gradient-57);}.cls-58{fill:url(#linear-gradient-58);}.cls-59{fill:url(#linear-gradient-59);}.cls-60{fill:url(#linear-gradient-60);}.cls-61{fill:url(#linear-gradient-61);}.cls-62{fill:url(#linear-gradient-62);}.cls-63{fill:url(#linear-gradient-63);}.cls-64{fill:url(#linear-gradient-64);}.cls-65{fill:url(#linear-gradient-65);}.cls-66{fill:url(#linear-gradient-66);}.cls-67{fill:url(#linear-gradient-67);}.cls-68{fill:url(#linear-gradient-68);}.cls-69{fill:url(#linear-gradient-69);}.cls-70{fill:url(#linear-gradient-70);}.cls-71{fill:url(#linear-gradient-71);}.cls-72{fill:url(#linear-gradient-72);}.cls-73{fill:url(#linear-gradient-73);}.cls-74{fill:url(#linear-gradient-74);}.cls-75{fill:url(#linear-gradient-75);}.cls-76{fill:url(#linear-gradient-76);}.cls-77{fill:url(#linear-gradient-77);}.cls-78{fill:url(#linear-gradient-78);}.cls-79{fill:url(#linear-gradient-79);}.cls-80{fill:url(#linear-gradient-80);}.cls-81{fill:url(#linear-gradient-81);}.cls-82{fill:url(#linear-gradient-82);}.cls-83{fill:url(#linear-gradient-83);}.cls-84{fill:url(#linear-gradient-84);}.cls-85{fill:url(#linear-gradient-85);}.cls-86{fill:url(#linear-gradient-86);}.cls-87{fill:url(#linear-gradient-87);}.cls-88{fill:url(#linear-gradient-88);}.cls-89{fill:url(#linear-gradient-89);}.cls-90{fill:url(#linear-gradient-90);}.cls-91{fill:url(#linear-gradient-91);}.cls-92{fill:url(#linear-gradient-92);}.cls-93{fill:url(#linear-gradient-93);}.cls-94{fill:url(#linear-gradient-94);}.cls-95{fill:url(#linear-gradient-95);}.cls-96{fill:url(#linear-gradient-96);}.cls-97{fill:url(#linear-gradient-97);}.cls-98{fill:url(#linear-gradient-98);}.cls-99{fill:url(#linear-gradient-99);}.cls-100{fill:url(#linear-gradient-100);}.cls-101{fill:url(#linear-gradient-101);}.cls-102{fill:url(#linear-gradient-102);}.cls-103{fill:url(#linear-gradient-103);}</style><linearGradient id="linear-gradient" x1="575.71" y1="44.37" x2="581.1" y2="44.37" gradientUnits="userSpaceOnUse"><stop offset="0" stop-color="#f7f7f7"/><stop offset="0" stop-color="#eaeff3"/><stop offset="0" stop-color="#f6f6f6"/><stop offset="0" stop-color="#2681bd"/><stop offset="1" stop-color="#009d95"/></linearGradient><linearGradient id="linear-gradient-2" x1="499.14" y1="51.45" x2="504.53" y2="51.45" xlink:href="#linear-gradient"/><linearGradient id="linear-gradient-3" x1="464.31" y1="33.53" x2="469.7" y2="33.53" xlink:href="#linear-gradient"/><linearGradient id="linear-gradient-4" x1="620.72" y1="109.3" x2="626.11" y2="109.3" xlink:href="#linear-gradient"/><linearGradient id="linear-gradient-5" x1="296.38" y1="183.61" x2="440.1" y2="183.61" xlink:href="#linear-gradient"/><linearGradient id="linear-gradient-6" x1="395.16" y1="284.91" x2="591.6" y2="284.91" xlink:href="#linear-gradient"/><linearGradient id="linear-gradient-7" x1="461.17" y1="328.95" x2="524.49" y2="328.95" xlink:href="#linear-gradient"/><linearGradient id="linear-gradient-8" x1="404.32" y1="235.53" x2="676.19" y2="235.53" xlink:href="#linear-gradient"/><linearGradient id="linear-gradient-9" x1="143.83" y1="263.24" x2="333.36" y2="263.24" xlink:href="#linear-gradient"/><linearGradient id="linear-gradient-10" x1="214.22" y1="268.91" x2="345.15" y2="268.91" xlink:href="#linear-gradient"/><linearGradient id="linear-gradient-11" x1="300.1" y1="277.71" x2="403.47" y2="277.71" xlink:href="#linear-gradient"/><linearGradient id="linear-gradient-12" x1="2.56" y1="132.68" x2="323.05" y2="132.68" xlink:href="#linear-gradient"/><linearGradient id="linear-gradient-13" x1="151.14" y1="147.79" x2="314.91" y2="147.79" xlink:href="#linear-gradient"/><linearGradient id="linear-gradient-14" x1="172.27" y1="173.19" x2="282.76" y2="173.19" xlink:href="#linear-gradient"/><linearGradient id="linear-gradient-15" x1="142.28" y1="102.79" x2="171.97" y2="102.79" xlink:href="#linear-gradient"/><linearGradient id="linear-gradient-16" x1="326.89" y1="306.48" x2="391.91" y2="306.48" xlink:href="#linear-gradient"/><linearGradient id="linear-gradient-17" x1="318.5" y1="249.07" x2="347.21" y2="249.07" xlink:href="#linear-gradient"/><linearGradient id="linear-gradient-18" x1="401" y1="106.18" x2="502.01" y2="106.18" xlink:href="#linear-gradient"/><linearGradient id="linear-gradient-19" x1="392.16" y1="94.58" x2="467.97" y2="94.58" xlink:href="#linear-gradient"/><linearGradient id="linear-gradient-20" x1="431.07" y1="143.23" x2="623.6" y2="143.23" xlink:href="#linear-gradient"/><linearGradient id="linear-gradient-21" x1="529.42" y1="140.79" x2="590.36" y2="140.79" xlink:href="#linear-gradient"/><linearGradient id="linear-gradient-22" x1="414.95" y1="106.41" x2="578.58" y2="106.41" xlink:href="#linear-gradient"/><linearGradient id="linear-gradient-23" x1="413.78" y1="224.89" x2="617.97" y2="224.89" xlink:href="#linear-gradient"/><linearGradient id="linear-gradient-24" x1="473.3" y1="209" x2="546.64" y2="209" xlink:href="#linear-gradient"/><linearGradient id="linear-gradient-25" x1="267.45" y1="79.5" x2="344.3" y2="79.5" xlink:href="#linear-gradient"/><linearGradient id="linear-gradient-26" x1="301.93" y1="51.76" x2="360.04" y2="51.76" xlink:href="#linear-gradient"/><linearGradient id="linear-gradient-27" x1="298.6" y1="136.09" x2="353.59" y2="136.09" gradientTransform="translate(290.65 -215.48) rotate(61.59)" xlink:href="#linear-gradient"/><linearGradient id="linear-gradient-28" x1="380.44" y1="94.94" x2="411.19" y2="94.94" xlink:href="#linear-gradient"/><linearGradient id="linear-gradient-29" x1="392.53" y1="73.85" x2="409.99" y2="73.85" xlink:href="#linear-gradient"/><linearGradient id="linear-gradient-30" x1="422.19" y1="185.65" x2="611.82" y2="185.65" xlink:href="#linear-gradient"/><linearGradient id="linear-gradient-31" x1="280.5" y1="127.65" x2="363.51" y2="127.65" xlink:href="#linear-gradient"/><linearGradient id="linear-gradient-32" x1="332.59" y1="119.37" x2="385.28" y2="119.37" xlink:href="#linear-gradient"/><linearGradient id="linear-gradient-33" x1="329.48" y1="110.19" x2="371.9" y2="110.19" xlink:href="#linear-gradient"/><linearGradient id="linear-gradient-34" x1="329.1" y1="98.06" x2="381.13" y2="98.06" xlink:href="#linear-gradient"/><linearGradient id="linear-gradient-35" x1="326.91" y1="103.91" x2="332.29" y2="103.91" xlink:href="#linear-gradient"/><linearGradient id="linear-gradient-36" x1="329.96" y1="94.69" x2="335.35" y2="94.69" xlink:href="#linear-gradient"/><linearGradient id="linear-gradient-37" x1="384.6" y1="98.45" x2="389.99" y2="98.45" xlink:href="#linear-gradient"/><linearGradient id="linear-gradient-38" x1="501.17" y1="177.45" x2="506.56" y2="177.45" xlink:href="#linear-gradient"/><linearGradient id="linear-gradient-39" x1="574.42" y1="158.95" x2="579.8" y2="158.95" xlink:href="#linear-gradient"/><linearGradient id="linear-gradient-40" x1="478.13" y1="189.38" x2="483.52" y2="189.38" xlink:href="#linear-gradient"/><linearGradient id="linear-gradient-41" x1="469.3" y1="171.34" x2="474.69" y2="171.34" xlink:href="#linear-gradient"/><linearGradient id="linear-gradient-42" x1="340.37" y1="1.56" x2="345.75" y2="1.56" xlink:href="#linear-gradient"/><linearGradient id="linear-gradient-43" x1="357.18" y1="43.2" x2="362.56" y2="43.2" xlink:href="#linear-gradient"/><linearGradient id="linear-gradient-44" x1="102.17" y1="11.97" x2="107.55" y2="11.97" xlink:href="#linear-gradient"/><linearGradient id="linear-gradient-45" x1="195.14" y1="7.43" x2="200.53" y2="7.43" xlink:href="#linear-gradient"/><linearGradient id="linear-gradient-46" x1="224.83" y1="70.07" x2="230.22" y2="70.07" xlink:href="#linear-gradient"/><linearGradient id="linear-gradient-47" x1="543.92" y1="202.27" x2="549.31" y2="202.27" xlink:href="#linear-gradient"/><linearGradient id="linear-gradient-48" x1="615.12" y1="252.38" x2="620.5" y2="252.38" xlink:href="#linear-gradient"/><linearGradient id="linear-gradient-49" x1="673.34" y1="235.95" x2="678.71" y2="235.95" xlink:href="#linear-gradient"/><linearGradient id="linear-gradient-50" x1="522.06" y1="366.72" x2="527.45" y2="366.72" xlink:href="#linear-gradient"/><linearGradient id="linear-gradient-51" x1="326.53" y1="75.71" x2="331.92" y2="75.71" xlink:href="#linear-gradient"/><linearGradient id="linear-gradient-52" x1="390.12" y1="53.47" x2="395.51" y2="53.47" xlink:href="#linear-gradient"/><linearGradient id="linear-gradient-53" x1="405.62" y1="39.28" x2="411.01" y2="39.28" xlink:href="#linear-gradient"/><linearGradient id="linear-gradient-54" x1="587.49" y1="133.88" x2="592.88" y2="133.88" xlink:href="#linear-gradient"/><linearGradient id="linear-gradient-55" x1="538.75" y1="114.82" x2="544.13" y2="114.82" xlink:href="#linear-gradient"/><linearGradient id="linear-gradient-56" x1="608.91" y1="162.3" x2="614.3" y2="162.3" xlink:href="#linear-gradient"/><linearGradient id="linear-gradient-57" x1="277.83" y1="111.13" x2="283.22" y2="111.13" xlink:href="#linear-gradient"/><linearGradient id="linear-gradient-58" x1="170.95" y1="176.8" x2="176.34" y2="176.8" xlink:href="#linear-gradient"/><linearGradient id="linear-gradient-59" x1="217.99" y1="214.39" x2="223.39" y2="214.39" xlink:href="#linear-gradient"/><linearGradient id="linear-gradient-60" x1="243.61" y1="200.2" x2="249" y2="200.2" xlink:href="#linear-gradient"/><linearGradient id="linear-gradient-61" x1="269.16" y1="220.58" x2="274.55" y2="220.58" xlink:href="#linear-gradient"/><linearGradient id="linear-gradient-62" x1="316.54" y1="273.21" x2="321.93" y2="273.21" xlink:href="#linear-gradient"/><linearGradient id="linear-gradient-63" x1="141.83" y1="321.23" x2="147.22" y2="321.23" xlink:href="#linear-gradient"/><linearGradient id="linear-gradient-64" x1="211.66" y1="326.25" x2="217.05" y2="326.25" xlink:href="#linear-gradient"/><linearGradient id="linear-gradient-65" x1="348.47" y1="268.61" x2="353.86" y2="268.61" xlink:href="#linear-gradient"/><linearGradient id="linear-gradient-66" x1="352.56" y1="288.12" x2="357.94" y2="288.12" xlink:href="#linear-gradient"/><linearGradient id="linear-gradient-67" x1="408.35" y1="309.78" x2="413.74" y2="309.78" xlink:href="#linear-gradient"/><linearGradient id="linear-gradient-68" x1="389.05" y1="317.81" x2="394.44" y2="317.81" xlink:href="#linear-gradient"/><linearGradient id="linear-gradient-69" x1="588.81" y1="360.96" x2="594.12" y2="360.96" xlink:href="#linear-gradient"/><linearGradient id="linear-gradient-70" x1="400.63" y1="337.12" x2="406" y2="337.12" xlink:href="#linear-gradient"/><linearGradient id="linear-gradient-71" x1="278.9" y1="176.89" x2="284.29" y2="176.89" xlink:href="#linear-gradient"/><linearGradient id="linear-gradient-72" x1="409.14" y1="238.39" x2="414.53" y2="238.39" xlink:href="#linear-gradient"/><linearGradient id="linear-gradient-73" x1="520.88" y1="273.66" x2="526.27" y2="273.66" xlink:href="#linear-gradient"/><linearGradient id="linear-gradient-74" x1="603.02" y1="313.23" x2="608.41" y2="313.23" xlink:href="#linear-gradient"/><linearGradient id="linear-gradient-75" x1="577.88" y1="320.7" x2="583.25" y2="320.7" xlink:href="#linear-gradient"/><linearGradient id="linear-gradient-76" x1="233.32" y1="175.39" x2="238.7" y2="175.39" xlink:href="#linear-gradient"/><linearGradient id="linear-gradient-77" x1="139.71" y1="88.02" x2="145.1" y2="88.02" xlink:href="#linear-gradient"/><linearGradient id="linear-gradient-78" x1="105.83" y1="185.13" x2="111.22" y2="185.13" xlink:href="#linear-gradient"/><linearGradient id="linear-gradient-79" x1="148.58" y1="121.43" x2="153.97" y2="121.43" xlink:href="#linear-gradient"/><linearGradient id="linear-gradient-80" x1="-0.02" y1="121.94" x2="5.36" y2="121.94" xlink:href="#linear-gradient"/><linearGradient id="linear-gradient-81" x1="296.06" y1="121.29" x2="301.43" y2="121.29" xlink:href="#linear-gradient"/><linearGradient id="linear-gradient-82" x1="387.21" y1="104.6" x2="410.43" y2="104.6" gradientTransform="translate(301.07 -295.95) rotate(61.59)" xlink:href="#linear-gradient"/><linearGradient id="linear-gradient-83" x1="281.15" y1="173.42" x2="305.66" y2="173.42" xlink:href="#linear-gradient"/><linearGradient id="linear-gradient-84" x1="220.56" y1="222.75" x2="319.29" y2="222.75" xlink:href="#linear-gradient"/><linearGradient id="linear-gradient-85" x1="246.72" y1="198.47" x2="302.91" y2="198.47" xlink:href="#linear-gradient"/><linearGradient id="linear-gradient-86" x1="271.71" y1="207.39" x2="294.9" y2="207.39" xlink:href="#linear-gradient"/><linearGradient id="linear-gradient-87" x1="453.47" y1="170.12" x2="504.03" y2="170.12" xlink:href="#linear-gradient"/><linearGradient id="linear-gradient-88" x1="104.74" y1="88.01" x2="332.21" y2="88.01" xlink:href="#linear-gradient"/><linearGradient id="linear-gradient-89" x1="429.83" y1="195.65" x2="481.06" y2="195.65" xlink:href="#linear-gradient"/><linearGradient id="linear-gradient-90" x1="383.83" y1="261.81" x2="427.02" y2="261.81" xlink:href="#linear-gradient"/><linearGradient id="linear-gradient-91" x1="395.98" y1="228.72" x2="411.99" y2="228.72" xlink:href="#linear-gradient"/><linearGradient id="linear-gradient-92" x1="474.86" y1="271.14" x2="605.75" y2="271.14" xlink:href="#linear-gradient"/><linearGradient id="linear-gradient-93" x1="508.82" y1="293.39" x2="580.73" y2="293.39" xlink:href="#linear-gradient"/><linearGradient id="linear-gradient-94" x1="452.98" y1="251.77" x2="523.74" y2="251.77" xlink:href="#linear-gradient"/><linearGradient id="linear-gradient-95" x1="227.35" y1="89.71" x2="268.68" y2="89.71" xlink:href="#linear-gradient"/><linearGradient id="linear-gradient-96" x1="235.87" y1="169.54" x2="272.12" y2="169.54" xlink:href="#linear-gradient"/><linearGradient id="linear-gradient-97" x1="108.97" y1="163.75" x2="255.92" y2="163.75" xlink:href="#linear-gradient"/><linearGradient id="linear-gradient-98" x1="351.45" y1="244.42" x2="377.98" y2="244.42" xlink:href="#linear-gradient"/><linearGradient id="linear-gradient-99" x1="355.11" y1="263.65" x2="397.61" y2="263.65" xlink:href="#linear-gradient"/><linearGradient id="linear-gradient-100" x1="453.09" y1="129.98" x2="541.62" y2="129.98" xlink:href="#linear-gradient"/><linearGradient id="linear-gradient-101" x1="488.32" y1="163.99" x2="577.14" y2="163.99" xlink:href="#linear-gradient"/><linearGradient id="linear-gradient-102" x1="433.83" y1="178.32" x2="472.01" y2="178.32" xlink:href="#linear-gradient"/><linearGradient id="linear-gradient-103" x1="197.71" y1="42.04" x2="275.36" y2="42.04" xlink:href="#linear-gradient"/></defs><title>Circuit</title><path class="cls-1" d="M576.47,43.32a4.21,4.21,0,0,1,3.8-.1,1.16,1.16,0,0,1,.07,2.2,4.23,4.23,0,0,1-3.81.1,1.16,1.16,0,0,1-.77-1.45A1.13,1.13,0,0,1,576.47,43.32Z" transform="translate(0.02 0)"/><path class="cls-2" d="M499.9,50.41a4.23,4.23,0,0,1,3.81-.11,1.16,1.16,0,0,1,.77,1.45,1.13,1.13,0,0,1-.71.75,4.23,4.23,0,0,1-3.81.11,1.16,1.16,0,0,1-.77-1.45A1.13,1.13,0,0,1,499.9,50.41Z" transform="translate(0.02 0)"/><path class="cls-3" d="M465.07,32.48a4.23,4.23,0,0,1,3.81-.11,1.16,1.16,0,0,1,.77,1.45,1.13,1.13,0,0,1-.71.75,4.23,4.23,0,0,1-3.81.11,1.16,1.16,0,0,1-.77-1.45A1.13,1.13,0,0,1,465.07,32.48Z" transform="translate(0.02 0)"/><path class="cls-4" d="M621.48,108.25a4.23,4.23,0,0,1,3.81-.1,1.16,1.16,0,0,1,.77,1.45,1.13,1.13,0,0,1-.71.75,4.21,4.21,0,0,1-3.8.1,1.16,1.16,0,0,1-.07-2.2Z" transform="translate(0.02 0)"/><path class="cls-5" d="M367.09,142.14l.15.09,72.86,39.41-.44.27L369.4,225.08l-.16-.08-72.86-39.41.45-.28Zm71.81,39.53-71.79-38.83-69.52,42.75,71.79,38.83Z" transform="translate(0.02 0)"/><polygon class="cls-6" points="395.45 208.58 445.88 235.86 447.18 282.59 591.6 360.7 591.31 361.23 446.59 282.95 445.29 236.22 395.16 209.11 395.45 208.58"/><polygon class="cls-7" points="461.78 290.65 462.96 333.44 524.49 366.71 524.2 367.24 462.37 333.8 461.17 290.67 461.78 290.65"/><polygon class="cls-8" points="404.6 202.95 453.49 229.39 537.42 227.06 537.49 227.1 612.16 267.49 624.75 267.14 675.88 235.7 676.19 236.21 624.93 267.74 612.01 268.1 611.94 268.06 537.27 227.67 453.35 230 453.28 229.96 404.32 203.47 404.6 202.95"/><polygon class="cls-9" points="333.05 204.93 333.36 205.44 237.81 264.21 180 265.81 144.44 287.68 145.38 321.53 144.77 321.55 143.83 287.35 143.97 287.25 179.82 265.21 237.64 263.61 333.05 204.93"/><polygon class="cls-10" points="344.84 211.31 345.15 211.82 248.54 271.24 249.48 305.01 249.33 305.11 214.53 326.51 214.22 325.99 248.86 304.68 247.93 270.91 248.08 270.82 344.84 211.31"/><polygon class="cls-11" points="357.2 217.99 357.51 218.51 300.71 253.44 301.5 281.73 403.47 336.89 403.18 337.42 300.9 282.09 300.1 253.11 300.25 253.01 357.2 217.99"/><polygon class="cls-12" points="41.26 97.88 130.41 95.4 130.48 95.44 195.62 130.68 248.7 129.2 248.77 129.24 323.05 169.42 322.76 169.95 248.56 129.81 195.48 131.28 195.41 131.24 130.27 96.01 41.44 98.47 2.87 122.19 2.56 121.68 41.26 97.88"/><polygon class="cls-13" points="151.43 120.63 183.63 138.05 244.55 136.36 244.62 136.4 314.91 174.42 314.63 174.95 244.4 136.96 183.49 138.66 183.41 138.62 151.14 121.16 151.43 120.63"/><polygon class="cls-14" points="282.45 157.03 282.76 157.54 232.71 188.32 196.22 189.34 196.15 189.3 172.27 176.39 172.56 175.86 196.36 188.73 232.53 187.73 282.45 157.03"/><polygon class="cls-15" points="142.57 87.75 171.57 103.44 171.97 117.8 171.37 117.82 170.98 103.8 142.28 88.28 142.57 87.75"/><polygon class="cls-16" points="326.89 295.51 349.98 294.87 350.05 294.91 391.91 317.55 391.62 318.08 349.83 295.48 326.91 296.11 326.89 295.51"/><polygon class="cls-17" points="346.18 224.94 346.79 224.93 347.21 240.17 347.06 240.26 319.11 257.45 319.55 273.2 318.95 273.21 318.5 257.12 318.65 257.03 346.6 239.84 346.18 224.94"/><polygon class="cls-18" points="501.7 51.2 502.01 51.71 453.35 81.64 454.65 128.36 454.5 128.45 401.32 161.16 401 160.65 454.04 128.03 452.74 81.3 452.89 81.21 501.7 51.2"/><polygon class="cls-19" points="467.66 32.78 467.97 33.3 448.85 45.05 449.43 65.65 449.28 65.75 430.59 77.24 432.11 132 431.96 132.09 392.48 156.38 392.16 155.87 431.5 131.67 429.98 76.91 430.13 76.82 448.81 65.32 448.24 44.72 448.39 44.63 467.66 32.78"/><polygon class="cls-20" points="623.28 109.04 623.6 109.56 608.16 119.05 575 119.97 516.17 156.15 463.6 157.61 431.38 177.42 431.07 176.91 463.42 157.01 515.99 155.55 574.82 119.37 607.98 118.45 623.28 109.04"/><polygon class="cls-21" points="590.05 133.63 590.36 134.14 569.74 146.82 529.44 147.94 529.42 147.34 569.56 146.22 590.05 133.63"/><polygon class="cls-22" points="578.26 44.11 578.58 44.63 503.06 91.06 503.71 114.32 503.56 114.41 415.27 168.71 414.95 168.19 503.1 113.98 502.45 90.73 502.6 90.64 578.26 44.11"/><polygon class="cls-23" points="414.07 197.13 449.26 216.16 546.5 213.46 546.57 213.5 617.97 252.12 617.68 252.65 546.36 214.07 449.11 216.76 449.04 216.73 413.78 197.66 414.07 197.13"/><polygon class="cls-24" points="492.94 203.45 546.62 201.96 546.64 202.57 493.11 204.05 473.61 216.04 473.3 215.53 492.94 203.45"/><polygon class="cls-25" points="343.38 1.55 344.3 34.52 344.15 34.61 268.06 81.4 269.04 116.7 343.38 156.91 343.1 157.44 268.45 117.06 267.45 81.07 267.6 80.98 343.68 34.19 342.78 1.56 343.38 1.55"/><polygon class="cls-26" points="359.73 42.94 360.04 43.46 333.65 59.69 301.95 60.57 301.93 59.97 333.47 59.09 359.73 42.94"/><rect class="cls-27" x="325.79" y="104.99" width="0.6" height="62.2" transform="translate(51.27 358.16) rotate(-61.59)"/><polygon class="cls-28" points="408.65 39.84 411.19 131.33 411.04 131.42 380.76 150.04 380.44 149.53 410.58 131 408.04 39.85 408.65 39.84"/><polygon class="cls-29" points="392.53 53.48 393.13 53.47 394.01 85.05 409.99 93.69 409.71 94.22 393.42 85.41 392.53 53.48"/><polygon class="cls-30" points="611.51 162.06 611.82 162.58 564.19 191.87 489.65 193.94 465.33 208.9 453.14 209.23 453.07 209.19 422.19 192.49 422.47 191.96 453.29 208.63 465.15 208.3 489.47 193.34 564.02 191.27 611.51 162.06"/><polygon class="cls-31" points="280.5 110.78 300.1 110.24 300.17 110.28 363.51 144.54 363.22 145.06 299.96 110.85 280.52 111.39 280.5 110.78"/><polygon class="cls-32" points="332.88 94.38 384.93 122.53 385.28 135.13 385.13 135.22 370.26 144.36 369.95 143.85 384.66 134.79 384.33 122.9 332.59 94.91 332.88 94.38"/><polygon class="cls-33" points="329.76 103.64 352.85 116.13 371.89 115.6 371.9 116.2 352.7 116.74 352.63 116.7 329.48 104.17 329.76 103.64"/><polygon class="cls-34" points="329.39 75.45 353.53 88.5 353.83 99.39 380.95 114.06 381.13 120.65 380.53 120.67 380.36 114.42 353.24 99.75 352.93 88.87 329.1 75.98 329.39 75.45"/><path class="cls-35" d="M327.67,102.86a4.23,4.23,0,0,1,3.81-.1,1.16,1.16,0,0,1,.06,2.19,4.23,4.23,0,0,1-3.81.11,1.16,1.16,0,0,1-.77-1.45A1.13,1.13,0,0,1,327.67,102.86Z" transform="translate(0.02 0)"/><path class="cls-36" d="M330.72,93.64a4.23,4.23,0,0,1,3.81-.11A1.16,1.16,0,0,1,335.3,95a1.13,1.13,0,0,1-.71.75,4.23,4.23,0,0,1-3.81.11,1.16,1.16,0,0,1-.77-1.45A1.13,1.13,0,0,1,330.72,93.64Z" transform="translate(0.02 0)"/><path class="cls-37" d="M385.36,97.4a4.23,4.23,0,0,1,3.81-.1,1.16,1.16,0,0,1,.77,1.45,1.13,1.13,0,0,1-.71.75,4.21,4.21,0,0,1-3.8.1,1.16,1.16,0,0,1-.07-2.2Z" transform="translate(0.02 0)"/><path class="cls-38" d="M501.93,176.4a4.23,4.23,0,0,1,3.81-.1,1.16,1.16,0,0,1,.77,1.45,1.13,1.13,0,0,1-.71.75,4.23,4.23,0,0,1-3.81.1,1.16,1.16,0,0,1-.77-1.45A1.13,1.13,0,0,1,501.93,176.4Z" transform="translate(0.02 0)"/><path class="cls-39" d="M575.18,157.91a4.21,4.21,0,0,1,3.8-.11,1.16,1.16,0,0,1,.77,1.45,1.13,1.13,0,0,1-.71.75,4.21,4.21,0,0,1-3.8.11,1.16,1.16,0,0,1-.77-1.45A1.13,1.13,0,0,1,575.18,157.91Z" transform="translate(0.02 0)"/><path class="cls-40" d="M478.89,188.34a4.23,4.23,0,0,1,3.81-.11,1.16,1.16,0,0,1,.77,1.45,1.13,1.13,0,0,1-.71.75,4.23,4.23,0,0,1-3.81.11,1.16,1.16,0,0,1-.77-1.45A1.13,1.13,0,0,1,478.89,188.34Z" transform="translate(0.02 0)"/><path class="cls-41" d="M470.06,170.3a4.23,4.23,0,0,1,3.81-.11,1.16,1.16,0,0,1,.77,1.45,1.13,1.13,0,0,1-.71.75,4.23,4.23,0,0,1-3.81.11,1.16,1.16,0,0,1-.77-1.45A1.13,1.13,0,0,1,470.06,170.3Z" transform="translate(0.02 0)"/><path class="cls-42" d="M341.13.51a4.21,4.21,0,0,1,3.8-.11,1.16,1.16,0,0,1,.77,1.45,1.13,1.13,0,0,1-.71.75,4.21,4.21,0,0,1-3.8.11,1.16,1.16,0,0,1-.77-1.45A1.13,1.13,0,0,1,341.13.51Z" transform="translate(0.02 0)"/><path class="cls-43" d="M357.93,42.16a4.23,4.23,0,0,1,3.81-.11,1.16,1.16,0,0,1,.77,1.45,1.13,1.13,0,0,1-.71.75,4.23,4.23,0,0,1-3.81.1,1.16,1.16,0,0,1-.06-2.19Z" transform="translate(0.02 0)"/><path class="cls-44" d="M102.93,10.92a4.2,4.2,0,0,1,3.81-.1A1.16,1.16,0,0,1,106.8,13a4.23,4.23,0,0,1-3.81.11,1.16,1.16,0,0,1-.77-1.45A1.13,1.13,0,0,1,102.93,10.92Z" transform="translate(0.02 0)"/><path class="cls-45" d="M195.9,6.38a4.23,4.23,0,0,1,3.81-.11,1.16,1.16,0,0,1,.77,1.45,1.13,1.13,0,0,1-.71.75,4.23,4.23,0,0,1-3.81.11,1.16,1.16,0,0,1-.77-1.45A1.13,1.13,0,0,1,195.9,6.38Z" transform="translate(0.02 0)"/><path class="cls-46" d="M225.59,69a4.23,4.23,0,0,1,3.81-.1,1.16,1.16,0,0,1,.77,1.45,1.13,1.13,0,0,1-.71.75,4.23,4.23,0,0,1-3.81.1,1.16,1.16,0,0,1-.77-1.45A1.13,1.13,0,0,1,225.59,69Z" transform="translate(0.02 0)"/><path class="cls-47" d="M544.68,201.22a4.21,4.21,0,0,1,3.8-.11,1.16,1.16,0,0,1,.07,2.2,4.23,4.23,0,0,1-3.81.11A1.16,1.16,0,0,1,544,202,1.13,1.13,0,0,1,544.68,201.22Z" transform="translate(0.02 0)"/><path class="cls-48" d="M615.87,251.34a4.23,4.23,0,0,1,3.81-.11,1.16,1.16,0,0,1,.77,1.45,1.13,1.13,0,0,1-.71.75,4.23,4.23,0,0,1-3.81.1,1.16,1.16,0,0,1-.06-2.19Z" transform="translate(0.02 0)"/><path class="cls-49" d="M674.08,234.91a4.23,4.23,0,0,1,3.81-.11,1.16,1.16,0,0,1,.77,1.45,1.13,1.13,0,0,1-.71.75,4.18,4.18,0,0,1-3.8.1,1.16,1.16,0,0,1-.07-2.19Z" transform="translate(0.02 0)"/><path class="cls-50" d="M522.82,365.67a4.21,4.21,0,0,1,3.8-.11,1.16,1.16,0,0,1,.07,2.2,4.23,4.23,0,0,1-3.81.11,1.16,1.16,0,0,1-.77-1.45A1.13,1.13,0,0,1,522.82,365.67Z" transform="translate(0.02 0)"/><path class="cls-51" d="M327.29,74.67a4.23,4.23,0,0,1,3.81-.11,1.16,1.16,0,0,1,.77,1.45,1.13,1.13,0,0,1-.71.75,4.23,4.23,0,0,1-3.81.11,1.16,1.16,0,0,1-.77-1.45A1.13,1.13,0,0,1,327.29,74.67Z" transform="translate(0.02 0)"/><path class="cls-52" d="M390.88,52.43a4.21,4.21,0,0,1,3.8-.11,1.16,1.16,0,0,1,.07,2.2,4.23,4.23,0,0,1-3.81.11,1.16,1.16,0,0,1-.77-1.45A1.13,1.13,0,0,1,390.88,52.43Z" transform="translate(0.02 0)"/><path class="cls-53" d="M406.38,38.23a4.23,4.23,0,0,1,3.81-.1,1.16,1.16,0,0,1,.77,1.45,1.13,1.13,0,0,1-.71.75,4.23,4.23,0,0,1-3.81.1,1.16,1.16,0,0,1-.77-1.45A1.13,1.13,0,0,1,406.38,38.23Z" transform="translate(0.02 0)"/><path class="cls-54" d="M588.25,132.84a4.23,4.23,0,0,1,3.81-.11,1.16,1.16,0,0,1,.77,1.45,1.13,1.13,0,0,1-.71.75,4.23,4.23,0,0,1-3.81.11,1.16,1.16,0,0,1-.77-1.45A1.13,1.13,0,0,1,588.25,132.84Z" transform="translate(0.02 0)"/><path class="cls-55" d="M539.51,113.77a4.21,4.21,0,0,1,3.8-.11,1.16,1.16,0,0,1,.77,1.45,1.13,1.13,0,0,1-.71.75,4.21,4.21,0,0,1-3.8.11,1.16,1.16,0,0,1-.77-1.45A1.13,1.13,0,0,1,539.51,113.77Z" transform="translate(0.02 0)"/><path class="cls-56" d="M609.67,161.25a4.23,4.23,0,0,1,3.81-.11,1.16,1.16,0,0,1,.77,1.45,1.13,1.13,0,0,1-.71.75,4.23,4.23,0,0,1-3.81.11A1.16,1.16,0,0,1,609,162,1.13,1.13,0,0,1,609.67,161.25Z" transform="translate(0.02 0)"/><path class="cls-57" d="M278.59,110.08a4.23,4.23,0,0,1,3.81-.11,1.16,1.16,0,0,1,.77,1.45,1.13,1.13,0,0,1-.71.75,4.23,4.23,0,0,1-3.81.11,1.16,1.16,0,0,1-.77-1.45A1.13,1.13,0,0,1,278.59,110.08Z" transform="translate(0.02 0)"/><path class="cls-58" d="M171.71,175.75a4.23,4.23,0,0,1,3.81-.11,1.16,1.16,0,0,1,.77,1.45,1.13,1.13,0,0,1-.71.75,4.23,4.23,0,0,1-3.81.11,1.16,1.16,0,0,1-.77-1.45A1.13,1.13,0,0,1,171.71,175.75Z" transform="translate(0.02 0)"/><path class="cls-59" d="M218.75,213.34a4.23,4.23,0,0,1,3.81-.1,1.15,1.15,0,0,1,.06,2.19,4.21,4.21,0,0,1-3.8.11,1.16,1.16,0,0,1-.07-2.2Z" transform="translate(0.02 0)"/><path class="cls-60" d="M244.37,199.15a4.23,4.23,0,0,1,3.81-.1,1.16,1.16,0,0,1,.77,1.45,1.13,1.13,0,0,1-.71.75,4.23,4.23,0,0,1-3.81.1,1.16,1.16,0,0,1-.77-1.45A1.13,1.13,0,0,1,244.37,199.15Z" transform="translate(0.02 0)"/><path class="cls-61" d="M269.92,219.53a4.23,4.23,0,0,1,3.81-.1,1.16,1.16,0,0,1,.77,1.45,1.13,1.13,0,0,1-.71.75,4.23,4.23,0,0,1-3.81.1,1.16,1.16,0,0,1-.77-1.45A1.13,1.13,0,0,1,269.92,219.53Z" transform="translate(0.02 0)"/><path class="cls-62" d="M317.3,272.16a4.18,4.18,0,0,1,3.8-.1,1.15,1.15,0,0,1,.06,2.19,4.21,4.21,0,0,1-3.8.11,1.16,1.16,0,0,1-.77-1.45A1.13,1.13,0,0,1,317.3,272.16Z" transform="translate(0.02 0)"/><path class="cls-63" d="M142.59,320.18a4.23,4.23,0,0,1,3.81-.1,1.16,1.16,0,0,1,.77,1.45,1.13,1.13,0,0,1-.71.75,4.23,4.23,0,0,1-3.81.1,1.16,1.16,0,0,1-.77-1.45A1.13,1.13,0,0,1,142.59,320.18Z" transform="translate(0.02 0)"/><path class="cls-64" d="M212.42,325.2a4.23,4.23,0,0,1,3.81-.1,1.16,1.16,0,0,1,.77,1.45,1.13,1.13,0,0,1-.71.75,4.23,4.23,0,0,1-3.81.1,1.16,1.16,0,0,1-.77-1.45A1.13,1.13,0,0,1,212.42,325.2Z" transform="translate(0.02 0)"/><path class="cls-65" d="M349.23,267.57a4.23,4.23,0,0,1,3.81-.11,1.16,1.16,0,0,1,.77,1.45,1.13,1.13,0,0,1-.71.75,4.23,4.23,0,0,1-3.81.11,1.16,1.16,0,0,1-.77-1.45A1.13,1.13,0,0,1,349.23,267.57Z" transform="translate(0.02 0)"/><path class="cls-66" d="M353.31,287.08a4.23,4.23,0,0,1,3.81-.11,1.16,1.16,0,0,1,.77,1.45,1.13,1.13,0,0,1-.71.75,4.23,4.23,0,0,1-3.81.1,1.16,1.16,0,0,1-.06-2.19Z" transform="translate(0.02 0)"/><path class="cls-67" d="M409.11,308.73a4.23,4.23,0,0,1,3.81-.1,1.16,1.16,0,0,1,.77,1.45,1.13,1.13,0,0,1-.71.75,4.23,4.23,0,0,1-3.81.1,1.16,1.16,0,0,1-.77-1.45A1.13,1.13,0,0,1,409.11,308.73Z" transform="translate(0.02 0)"/><path class="cls-68" d="M389.81,316.77a4.23,4.23,0,0,1,3.81-.11,1.16,1.16,0,0,1,.77,1.45,1.13,1.13,0,0,1-.71.75,4.21,4.21,0,0,1-3.8.11,1.16,1.16,0,0,1-.07-2.2Z" transform="translate(0.02 0)"/><path class="cls-69" d="M589.5,359.92a4.23,4.23,0,0,1,3.81-.1,1.16,1.16,0,0,1,.06,2.19,4.19,4.19,0,0,1-3.78.07,1.15,1.15,0,0,1-.72-1.47A1.13,1.13,0,0,1,589.5,359.92Z" transform="translate(0.02 0)"/><path class="cls-70" d="M401.37,336.08a4.23,4.23,0,0,1,3.81-.11,1.16,1.16,0,0,1,.77,1.45,1.13,1.13,0,0,1-.71.75,4.21,4.21,0,0,1-3.8.1,1.16,1.16,0,0,1-.07-2.19Z" transform="translate(0.02 0)"/><path class="cls-71" d="M279.66,175.84a4.21,4.21,0,0,1,3.8-.1,1.16,1.16,0,0,1,.07,2.2,4.23,4.23,0,0,1-3.81.1,1.16,1.16,0,0,1-.77-1.45A1.13,1.13,0,0,1,279.66,175.84Z" transform="translate(0.02 0)"/><path class="cls-72" d="M409.9,237.35a4.21,4.21,0,0,1,3.8-.11,1.16,1.16,0,0,1,.07,2.2,4.23,4.23,0,0,1-3.81.11,1.16,1.16,0,0,1-.77-1.45A1.13,1.13,0,0,1,409.9,237.35Z" transform="translate(0.02 0)"/><path class="cls-73" d="M521.65,272.62a4.21,4.21,0,0,1,3.8-.11,1.16,1.16,0,0,1,.77,1.45,1.13,1.13,0,0,1-.71.75,4.18,4.18,0,0,1-3.8.1,1.15,1.15,0,0,1-.06-2.19Z" transform="translate(0.02 0)"/><path class="cls-74" d="M603.76,312.19a4.21,4.21,0,0,1,3.83-.11,1.16,1.16,0,0,1,.77,1.45,1.13,1.13,0,0,1-.71.75,4.2,4.2,0,0,1-3.81.1,1.16,1.16,0,0,1-.77-1.45A1.18,1.18,0,0,1,603.76,312.19Z" transform="translate(0.02 0)"/><path class="cls-75" d="M578.64,319.65a4.21,4.21,0,0,1,3.8-.1,1.16,1.16,0,0,1,.07,2.19,4.23,4.23,0,0,1-3.81.11,1.16,1.16,0,0,1-.77-1.45A1.13,1.13,0,0,1,578.64,319.65Z" transform="translate(0.02 0)"/><path class="cls-76" d="M234.07,174.35a4.23,4.23,0,0,1,3.81-.11,1.16,1.16,0,0,1,.77,1.45,1.13,1.13,0,0,1-.71.75,4.2,4.2,0,0,1-3.81.1,1.16,1.16,0,0,1-.06-2.19Z" transform="translate(0.02 0)"/><path class="cls-77" d="M140.47,87a4.23,4.23,0,0,1,3.81-.11,1.16,1.16,0,0,1,.77,1.45,1.13,1.13,0,0,1-.71.75,4.23,4.23,0,0,1-3.81.11,1.16,1.16,0,0,1-.77-1.45A1.13,1.13,0,0,1,140.47,87Z" transform="translate(0.02 0)"/><path class="cls-78" d="M106.59,184.08a4.21,4.21,0,0,1,3.8-.1,1.16,1.16,0,0,1,.07,2.2,4.23,4.23,0,0,1-3.81.1,1.16,1.16,0,0,1-.77-1.45A1.13,1.13,0,0,1,106.59,184.08Z" transform="translate(0.02 0)"/><path class="cls-79" d="M149.35,120.39a4.21,4.21,0,0,1,3.8-.11,1.16,1.16,0,0,1,.77,1.45,1.13,1.13,0,0,1-.71.75,4.21,4.21,0,0,1-3.8.1,1.15,1.15,0,0,1-.06-2.19Z" transform="translate(0.02 0)"/><path class="cls-80" d="M.76,120.89a4.23,4.23,0,0,1,3.81-.1,1.16,1.16,0,0,1,.73,1.47,1.18,1.18,0,0,1-.71.72,4.23,4.23,0,0,1-3.81.11A1.17,1.17,0,0,1,0,121.63,1.19,1.19,0,0,1,.76,120.89Z" transform="translate(0.02 0)"/><path class="cls-81" d="M296.8,120.25a4.23,4.23,0,0,1,3.81-.11,1.16,1.16,0,0,1,.77,1.45,1.13,1.13,0,0,1-.71.75,4.21,4.21,0,0,1-3.8.1,1.16,1.16,0,0,1-.07-2.19Z" transform="translate(0.02 0)"/><rect class="cls-82" x="398.52" y="91.57" width="0.6" height="26.07" transform="translate(117.09 405.62) rotate(-61.59)"/><polygon class="cls-83" points="292.62 169.81 305.64 169.45 305.66 170.05 292.79 170.41 281.47 177.38 281.15 176.86 292.62 169.81"/><polygon class="cls-84" points="220.85 214.12 252.85 231.43 274.04 230.84 301.53 213.94 319.28 213.45 319.29 214.05 301.71 214.54 274.22 231.44 252.71 232.04 252.63 232 220.56 214.65 220.85 214.12"/><polygon class="cls-85" points="302.59 188.46 302.91 188.97 271.69 208.17 260.98 208.47 260.91 208.43 246.72 200.76 247.01 200.23 261.12 207.86 271.51 207.57 302.59 188.46"/><polygon class="cls-86" points="294.54 193.94 294.9 206.77 294.75 206.86 272.03 220.84 271.71 220.32 294.28 206.44 293.94 193.96 294.54 193.94"/><polygon class="cls-87" points="453.47 163.18 476.94 162.53 477.01 162.57 504.03 177.18 503.74 177.71 476.79 163.14 453.48 163.78 453.47 163.18"/><polygon class="cls-88" points="105.02 11.7 187.41 56.27 188.23 85.91 332.21 163.78 331.92 164.31 187.64 86.27 186.82 56.63 104.74 12.23 105.02 11.7"/><polygon class="cls-89" points="480.74 189.16 481.06 189.67 461.16 201.91 452.84 202.14 452.77 202.1 441.95 196.25 429.85 196.59 429.83 195.98 442.1 195.64 442.17 195.68 452.98 201.53 460.98 201.31 480.74 189.16"/><polygon class="cls-90" points="387.31 213.58 426.31 234.68 427.02 260.29 426.87 260.38 384.44 286.48 384.68 295.16 411.21 309.51 410.92 310.04 384.09 295.53 383.83 286.15 383.97 286.06 426.41 259.96 425.72 235.04 387.02 214.11 387.31 213.58"/><polygon class="cls-91" points="395.98 218.78 396.58 218.77 396.89 229.96 411.99 238.13 411.71 238.66 396.3 230.32 395.98 218.78"/><polygon class="cls-92" points="475.15 228.83 567.35 278.7 567.72 292.34 605.75 312.91 605.46 313.44 567.13 292.71 566.75 279.06 474.86 229.36 475.15 228.83"/><polygon class="cls-93" points="508.82 265.84 509.42 265.82 509.87 282.1 580.73 320.43 580.45 320.96 509.28 282.47 508.82 265.84"/><polygon class="cls-94" points="453.26 229.61 499.86 254.82 500.02 260.57 523.74 273.4 523.46 273.93 499.43 260.93 499.27 255.18 452.98 230.14 453.26 229.61"/><polygon class="cls-95" points="227.63 69.8 255.2 84.71 255.68 102.05 268.68 109.08 268.39 109.61 255.09 102.41 254.61 85.08 227.35 70.33 227.63 69.8"/><polygon class="cls-96" points="254.1 163.92 272.11 163.42 272.12 164.03 254.28 164.52 236.18 175.65 235.87 175.14 254.1 163.92"/><polygon class="cls-97" points="173.37 144.84 255.91 142.55 255.92 143.15 173.55 145.44 109.29 184.95 108.97 184.44 173.37 144.84"/><polygon class="cls-98" points="376.48 220.24 377.09 220.22 377.98 252.49 377.83 252.58 351.77 268.61 351.45 268.09 377.37 252.16 376.48 220.24"/><polygon class="cls-99" points="377.46 238.9 397.25 249.61 397.61 262.45 397.46 262.55 355.42 288.4 355.11 287.88 397 262.12 396.66 249.97 377.17 239.43 377.46 238.9"/><polygon class="cls-100" points="541.3 114.56 541.62 115.07 494.17 144.25 453.11 145.39 453.09 144.79 494 143.65 541.3 114.56"/><polygon class="cls-101" points="548.06 159.46 577.12 158.65 577.14 159.26 548.24 160.06 535.28 168.03 488.33 169.33 488.32 168.73 535.1 167.43 548.06 159.46"/><polygon class="cls-102" points="471.7 171.19 472.01 171.7 450.4 184.99 433.84 185.45 433.83 184.84 450.22 184.39 471.7 171.19"/><polygon class="cls-103" points="198 7.16 230.95 24.98 231.72 52.77 275.36 76.38 275.08 76.91 231.13 53.14 230.36 25.35 197.71 7.69 198 7.16"/></svg>