<svg xmlns="http://www.w3.org/2000/svg" xmlns:xlink="http://www.w3.org/1999/xlink" viewBox="0 0 232.75 197.51"><defs><style>.cls-1{fill:none;}.cls-2{isolation:isolate;}.cls-3{fill:url(#Áåçûìÿííûé_ãðàäèåíò_24);}.cls-4{fill:url(#Áåçûìÿííûé_ãðàäèåíò_3);}.cls-5,.cls-9{fill:#24126a;}.cls-5{opacity:0.3;}.cls-6{fill:#fff;}.cls-7{fill:url(#Áåçûìÿííûé_ãðàäèåíò_3-2);}.cls-8{fill:url(#Áåçûìÿííûé_ãðàäèåíò_24-2);}.cls-10{opacity:0.51;}.cls-11{fill:#453c9e;}.cls-12{fill:url(#Áåçûìÿííûé_ãðàäèåíò_24-3);}.cls-13{fill:url(#Áåçûìÿííûé_ãðàäèåíò_3-3);}.cls-14{opacity:0.15;}.cls-15{clip-path:url(#clip-path);}.cls-16{fill:url(#Áåçûìÿííûé_ãðàäèåíò_24-4);}.cls-17{fill:url(#Áåçûìÿííûé_ãðàäèåíò_3-4);}.cls-18,.cls-21{opacity:0.5;}.cls-19{opacity:0.8;}.cls-20{fill:#42e8e0;}.cls-21{mix-blend-mode:lighten;fill:url(#Áåçûìÿííûé_ãðàäèåíò_56);}</style><linearGradient id="Áåçûìÿííûé_ãðàäèåíò_24" x1="437.47" y1="220.58" x2="269.34" y2="220.58" gradientUnits="userSpaceOnUse"><stop offset="0" stop-color="#5761d7"/><stop offset="0.18" stop-color="#5c66d9"/><stop offset="0.39" stop-color="#6a73df"/><stop offset="0.61" stop-color="#8289e8"/><stop offset="0.85" stop-color="#a3a7f5"/><stop offset="1" stop-color="#bcbeff"/></linearGradient><linearGradient id="Áåçûìÿííûé_ãðàäèåíò_3" x1="325.01" y1="216.67" x2="493.14" y2="216.67" gradientTransform="matrix(-1, 0, 0, 1, 709.14, 0)" gradientUnits="userSpaceOnUse"><stop offset="0" stop-color="#c0bff6"/><stop offset="0.29" stop-color="#c5c4f7"/><stop offset="0.64" stop-color="#d3d2f9"/><stop offset="1" stop-color="#e9e9fd"/></linearGradient><linearGradient id="Áåçûìÿííûé_ãðàäèåíò_3-2" x1="252.6" y1="142.91" x2="371.59" y2="142.91" xlink:href="#Áåçûìÿííûé_ãðàäèåíò_3"/><linearGradient id="Áåçûìÿííûé_ãðàäèåíò_24-2" x1="252.61" y1="173.43" x2="273.04" y2="173.43" gradientTransform="matrix(-1, 0, 0, 1, 709.14, 0)" xlink:href="#Áåçûìÿííûé_ãðàäèåíò_24"/><linearGradient id="Áåçûìÿííûé_ãðàäèåíò_24-3" x1="268.55" y1="206.72" x2="436.59" y2="206.72" gradientTransform="matrix(-1, 0, 0, 1, 709.14, 0)" xlink:href="#Áåçûìÿííûé_ãðàäèåíò_24"/><linearGradient id="Áåçûìÿííûé_ãðàäèåíò_3-3" x1="325.01" y1="202.12" x2="493.14" y2="202.12" xlink:href="#Áåçûìÿííûé_ãðàäèåíò_3"/><clipPath id="clip-path" transform="translate(-272.5 -72.4)"><polygon class="cls-1" points="453.7 134.69 350.22 74.98 337.21 152.28 440.63 211.96 453.7 134.69"/></clipPath><linearGradient id="Áåçûìÿííûé_ãðàäèåíò_24-4" x1="203.93" y1="169.74" x2="371.97" y2="169.74" gradientTransform="matrix(-1, 0, 0, 1, 709.14, 0)" xlink:href="#Áåçûìÿííûé_ãðàäèåíò_24"/><linearGradient id="Áåçûìÿííûé_ãðàäèåíò_3-4" x1="260.39" y1="165.14" x2="428.52" y2="165.14" xlink:href="#Áåçûìÿííûé_ãðàäèåíò_3"/><linearGradient id="Áåçûìÿííûé_ãðàäèåíò_56" x1="413.48" y1="149.08" x2="448.17" y2="163.92" gradientUnits="userSpaceOnUse"><stop offset="0" stop-color="#42e8e0"/><stop offset="0.11" stop-color="#37b6bf"/><stop offset="0.22" stop-color="#2c87a1"/><stop offset="0.34" stop-color="#235f87"/><stop offset="0.46" stop-color="#1c3f72"/><stop offset="0.58" stop-color="#162561"/><stop offset="0.71" stop-color="#121355"/><stop offset="0.85" stop-color="#10084e"/><stop offset="1" stop-color="#0f054c"/></linearGradient></defs><title>Laptop</title><g class="cls-2"><g id="Ñëîé_1" data-name="Ñëîé 1"><path class="cls-3" d="M440.63,228.75l-5.62-.81-97.25-56.15a4.17,4.17,0,0,0-3.77-.16l-57.93,33.44-3.56-.51v4.73h0a1.53,1.53,0,0,0,.91,1.22l101.95,58.86a4.17,4.17,0,0,0,3.77.16L440,234.4a1.11,1.11,0,0,0,.64-1h0Z" transform="translate(-272.5 -72.4)"/><path class="cls-4" d="M273.42,205.81l101.95,58.86a4.19,4.19,0,0,0,3.77.15L440,229.7c1-.56.84-1.53-.28-2.18L337.76,168.66a4.2,4.2,0,0,0-3.77-.15l-60.84,35.12C272.18,204.19,272.3,205.16,273.42,205.81Z" transform="translate(-272.5 -72.4)"/><path class="cls-5" d="M282.25,207l91.12,52.61a3.73,3.73,0,0,0,3.37.14l54.38-31.39c.86-.5.75-1.37-.24-1.95l-91.13-52.61a3.76,3.76,0,0,0-3.37-.14L282,205C281.14,205.51,281.25,206.39,282.25,207Z" transform="translate(-272.5 -72.4)"/><path class="cls-6" d="M440,229.19l-60.84,35.12a4.19,4.19,0,0,1-3.77-.15L273.42,205.3a1.73,1.73,0,0,1-.87-1c-.16.5.14,1.06.87,1.49l101.95,58.86a4.19,4.19,0,0,0,3.77.15L440,229.7a1,1,0,0,0,.6-1.2A1.22,1.22,0,0,1,440,229.19Z" transform="translate(-272.5 -72.4)"/><path class="cls-7" d="M337.57,150.31l12.89-76.46-1-.43,1.56-.89h0a1.1,1.1,0,0,1,1.2.08l103,59.46a2.9,2.9,0,0,1,1.34,2.62l-13,77.07a1,1,0,0,1-.54.78h0l-1.52.88L441.2,212l.08,0-102.37-59.1A2.9,2.9,0,0,1,337.57,150.31Z" transform="translate(-272.5 -72.4)"/><path class="cls-8" d="M454.6,134.17l1.69-.75a2.31,2.31,0,0,1,.22,1.28l-13,77.07a1,1,0,0,1-.54.78h0l-1.52.88L441.2,212l.08,0-5.18-3Z" transform="translate(-272.5 -72.4)"/><path class="cls-9" d="M337.29,153.86l103,59.46c.8.46,1.48.2,1.62-.63l13-77.06a2.94,2.94,0,0,0-1.34-2.62l-103-59.47c-.79-.45-1.47-.19-1.61.63l-13,77.07A2.91,2.91,0,0,0,337.29,153.86Z" transform="translate(-272.5 -72.4)"/><g class="cls-10"><polygon class="cls-11" points="77.72 2.58 181.2 62.3 168.13 139.56 64.72 79.88 77.72 2.58"/></g><path class="cls-12" d="M272.55,190.34l5.62,2.94,56.36-32.54a4.07,4.07,0,0,1,3.68.15L435.42,217c.93-.52,5.17-2.56,5.17-2.56l-2.06,3.35h0a1.25,1.25,0,0,1-.58.64L378.59,252.7a4.07,4.07,0,0,1-3.68-.15l-99.47-57.43a1.81,1.81,0,0,1-.84-.89h0Z" transform="translate(-272.5 -72.4)"/><path class="cls-13" d="M273.42,191.27l101.95,58.86a4.19,4.19,0,0,0,3.77.15L440,215.16c1-.56.84-1.53-.28-2.18L337.76,154.12A4.2,4.2,0,0,0,334,154l-60.84,35.12C272.18,189.65,272.3,190.62,273.42,191.27Z" transform="translate(-272.5 -72.4)"/><path class="cls-6" d="M273.42,190.81l101.95,58.86a4.23,4.23,0,0,0,3.77.16L440,214.7a1.21,1.21,0,0,0,.61-.71,1.05,1.05,0,0,1-.61,1.17l-60.84,35.12a4.19,4.19,0,0,1-3.77-.15L273.42,191.27c-.72-.42-1-1-.88-1.47A1.73,1.73,0,0,0,273.42,190.81Z" transform="translate(-272.5 -72.4)"/><g class="cls-14"><g class="cls-15"><path class="cls-16" d="M337.17,153.36l5.62,2.94,56.36-32.54a4.07,4.07,0,0,1,3.68.15L500,180c.93-.52,5.17-2.56,5.17-2.56l-2.06,3.35h0a1.19,1.19,0,0,1-.57.64l-59.36,34.27a4.13,4.13,0,0,1-3.68-.15l-99.48-57.44a1.77,1.77,0,0,1-.83-.88h0Z" transform="translate(-272.5 -72.4)"/><path class="cls-17" d="M338,154.28,440,213.14a4.17,4.17,0,0,0,3.77.16l60.83-35.12c1-.56.85-1.54-.27-2.18L402.37,117.14a4.23,4.23,0,0,0-3.77-.16l-60.83,35.13C336.8,152.67,336.92,153.64,338,154.28Z" transform="translate(-272.5 -72.4)"/><path class="cls-6" d="M504.32,176,402.37,117.14a4.45,4.45,0,0,0-2.52-.51,4.33,4.33,0,0,1,1.77.51L503.57,176c1.12.64,1.24,1.62.27,2.18L443,213.3a3,3,0,0,1-1.25.36,3.6,3.6,0,0,0,2-.36l60.83-35.12C505.56,177.62,505.44,176.64,504.32,176Z" transform="translate(-272.5 -72.4)"/><g class="cls-18"><path class="cls-9" d="M391.44,144.15l-3.27-1.88a1.08,1.08,0,0,0-1,0l-3.63,2.12c-.29.17-.31.43-.05.58l3.27,1.89a1.08,1.08,0,0,0,1,0l3.64-2.12C391.68,144.56,391.7,144.3,391.44,144.15Z" transform="translate(-272.5 -72.4)"/><path class="cls-9" d="M396.48,147.07l-3.26-1.89a1.08,1.08,0,0,0-1,0l-3.64,2.12c-.28.17-.3.42,0,.57l3.27,1.89a1.08,1.08,0,0,0,1,0l3.63-2.12C396.73,147.48,396.75,147.22,396.48,147.07Z" transform="translate(-272.5 -72.4)"/><path class="cls-9" d="M401.53,150l-3.27-1.89a1.08,1.08,0,0,0-1,0l-3.63,2.12c-.29.17-.3.43,0,.58l3.27,1.88a1.08,1.08,0,0,0,1,0l3.63-2.12C401.78,150.39,401.79,150.13,401.53,150Z" transform="translate(-272.5 -72.4)"/><path class="cls-9" d="M397.69,153.86,394.42,152a1.08,1.08,0,0,0-1,0l-3.05,1.78c-.28.17-.3.42,0,.58l3.27,1.88a1.08,1.08,0,0,0,1,0l3-1.78C397.93,154.27,398,154,397.69,153.86Z" transform="translate(-272.5 -72.4)"/><path class="cls-9" d="M402.74,156.77l-3.27-1.89a1.11,1.11,0,0,0-1,0l-3.05,1.78c-.29.17-.31.43,0,.58l3.26,1.89a1.14,1.14,0,0,0,1,0l3-1.78C403,157.18,403,156.92,402.74,156.77Z" transform="translate(-272.5 -72.4)"/><path class="cls-9" d="M407.78,159.68l-3.27-1.88a1.08,1.08,0,0,0-1,0l-3,1.78c-.28.16-.3.42,0,.57l3.27,1.89a1.08,1.08,0,0,0,1,0l3.05-1.78C408,160.09,408,159.84,407.78,159.68Z" transform="translate(-272.5 -72.4)"/><path class="cls-9" d="M412.83,162.6l-3.27-1.89a1.08,1.08,0,0,0-1,0l-3.05,1.78c-.28.17-.3.42,0,.58l3.27,1.88a1.11,1.11,0,0,0,1,0l3.05-1.79C413.07,163,413.09,162.75,412.83,162.6Z" transform="translate(-272.5 -72.4)"/><path class="cls-9" d="M417.88,165.51l-3.27-1.88a1.08,1.08,0,0,0-1,0l-3.05,1.78c-.29.17-.31.43,0,.58l3.26,1.89a1.1,1.1,0,0,0,1,0l3-1.78C418.12,165.92,418.14,165.66,417.88,165.51Z" transform="translate(-272.5 -72.4)"/><path class="cls-9" d="M422.92,168.43l-3.27-1.89a1.08,1.08,0,0,0-1,0l-3.05,1.78c-.28.16-.3.42,0,.57l3.27,1.89a1.08,1.08,0,0,0,1,0l3.05-1.78C423.17,168.84,423.18,168.58,422.92,168.43Z" transform="translate(-272.5 -72.4)"/><path class="cls-9" d="M428,171.34l-3.27-1.89a1.08,1.08,0,0,0-1,0l-3,1.78c-.28.17-.3.43,0,.58l3.27,1.88a1.08,1.08,0,0,0,1,0l3.05-1.78C428.21,171.75,428.23,171.49,428,171.34Z" transform="translate(-272.5 -72.4)"/><path class="cls-9" d="M433,174.25l-3.27-1.88a1.08,1.08,0,0,0-1,0l-3.05,1.79c-.29.16-.31.42,0,.57l3.26,1.89a1.1,1.1,0,0,0,1,0l3-1.78C433.26,174.66,433.28,174.4,433,174.25Z" transform="translate(-272.5 -72.4)"/><path class="cls-9" d="M438.06,177.17l-3.27-1.89a1.08,1.08,0,0,0-1,0l-3.05,1.78c-.28.17-.3.42,0,.57l3.27,1.89a1.08,1.08,0,0,0,1,0l3-1.78C438.31,177.58,438.32,177.32,438.06,177.17Z" transform="translate(-272.5 -72.4)"/><path class="cls-9" d="M443.11,180.08l-3.27-1.89a1.08,1.08,0,0,0-1,0L435.8,180c-.28.17-.3.43,0,.58l3.27,1.89a1.12,1.12,0,0,0,1,0l3.05-1.78C443.35,180.49,443.37,180.23,443.11,180.08Z" transform="translate(-272.5 -72.4)"/><path class="cls-9" d="M395.59,158l-3.27-1.89a1.08,1.08,0,0,0-1,0l-3.05,1.78c-.29.17-.31.42,0,.57l3.26,1.89a1.1,1.1,0,0,0,1,0l3.05-1.78C395.83,158.43,395.85,158.17,395.59,158Z" transform="translate(-272.5 -72.4)"/><path class="cls-9" d="M390.46,155.06l-3.26-1.89a1.08,1.08,0,0,0-1,0l-3,1.78c-.29.17-.31.43-.05.58l3.27,1.88a1.08,1.08,0,0,0,1,0l3.05-1.78C390.71,155.47,390.73,155.21,390.46,155.06Z" transform="translate(-272.5 -72.4)"/><path class="cls-9" d="M385.33,152.1l-7-4.07a1.1,1.1,0,0,0-1,0l-3,1.78c-.29.17-.31.43-.05.58l7,4.06a1.08,1.08,0,0,0,1,0l3.05-1.78C385.58,152.51,385.6,152.25,385.33,152.1Z" transform="translate(-272.5 -72.4)"/><path class="cls-9" d="M379.38,154l-5.71-3.29a1.08,1.08,0,0,0-1,0l-3.05,1.79c-.29.16-.3.42,0,.57l5.71,3.3a1.08,1.08,0,0,0,1,0l3-1.78C379.63,154.44,379.64,154.19,379.38,154Z" transform="translate(-272.5 -72.4)"/><path class="cls-9" d="M400.63,160.93,397.37,159a1.1,1.1,0,0,0-1,0l-3.05,1.78c-.28.17-.3.43,0,.58l3.27,1.89a1.11,1.11,0,0,0,1,0l3-1.78C400.88,161.34,400.9,161.08,400.63,160.93Z" transform="translate(-272.5 -72.4)"/><path class="cls-9" d="M405.68,163.84,402.41,162a1.11,1.11,0,0,0-1,0l-3.05,1.79c-.28.16-.3.42,0,.57l3.27,1.89a1.08,1.08,0,0,0,1,0l3.05-1.78C405.92,164.25,405.94,164,405.68,163.84Z" transform="translate(-272.5 -72.4)"/><path class="cls-9" d="M410.73,166.76l-3.27-1.89a1.08,1.08,0,0,0-1,0l-3.05,1.78c-.29.17-.31.42,0,.58l3.26,1.88a1.1,1.1,0,0,0,1,0l3.05-1.78C411,167.17,411,166.91,410.73,166.76Z" transform="translate(-272.5 -72.4)"/><path class="cls-9" d="M415.77,169.67l-3.26-1.89a1.14,1.14,0,0,0-1,0l-3.05,1.78c-.28.17-.3.43,0,.58l3.27,1.89a1.08,1.08,0,0,0,1,0l3.05-1.78C416,170.08,416,169.82,415.77,169.67Z" transform="translate(-272.5 -72.4)"/><path class="cls-9" d="M420.82,172.58l-3.27-1.88a1.08,1.08,0,0,0-1,0l-3.05,1.78c-.28.16-.3.42,0,.57l3.27,1.89a1.08,1.08,0,0,0,1,0l3-1.78C421.06,173,421.08,172.74,420.82,172.58Z" transform="translate(-272.5 -72.4)"/><path class="cls-9" d="M425.87,175.5l-3.27-1.89a1.08,1.08,0,0,0-1,0l-3.05,1.78c-.29.17-.31.43,0,.58l3.26,1.88a1.13,1.13,0,0,0,1,0l3.05-1.79C426.11,175.91,426.13,175.65,425.87,175.5Z" transform="translate(-272.5 -72.4)"/><path class="cls-9" d="M430.91,178.41l-3.26-1.88a1.1,1.1,0,0,0-1,0l-3,1.78c-.28.17-.3.43,0,.58l3.27,1.89a1.08,1.08,0,0,0,1,0l3.05-1.78C431.16,178.82,431.18,178.56,430.91,178.41Z" transform="translate(-272.5 -72.4)"/><path class="cls-9" d="M436,181.33l-3.27-1.89a1.08,1.08,0,0,0-1,0l-3.05,1.78c-.28.16-.3.42,0,.57l3.27,1.89a1.08,1.08,0,0,0,1,0l3.05-1.78C436.2,181.74,436.22,181.48,436,181.33Z" transform="translate(-272.5 -72.4)"/><path class="cls-9" d="M441,184.24l-3.27-1.89a1.08,1.08,0,0,0-1,0l-3.05,1.78c-.29.17-.31.43,0,.58l3.26,1.88a1.1,1.1,0,0,0,1,0l3-1.78C441.25,184.65,441.27,184.39,441,184.24Z" transform="translate(-272.5 -72.4)"/><path class="cls-9" d="M450,189.42l-7.13-4.12a1.08,1.08,0,0,0-1,0l-3.05,1.78c-.29.17-.31.43,0,.58l7.13,4.11a1.08,1.08,0,0,0,1,0l3.05-1.78C450.22,189.83,450.24,189.57,450,189.42Z" transform="translate(-272.5 -72.4)"/><path class="cls-9" d="M440.73,194.82l-6-3.47a1.08,1.08,0,0,0-1,0l-3.05,1.78c-.29.17-.31.42,0,.57l6,3.48a1.1,1.1,0,0,0,1,0l3.05-1.78C441,195.23,441,195,440.73,194.82Z" transform="translate(-272.5 -72.4)"/><path class="cls-9" d="M399.93,165.9,396.66,164a1.08,1.08,0,0,0-1,0l-3.05,1.78c-.28.17-.3.43,0,.58l3.27,1.88a1.08,1.08,0,0,0,1,0l3.05-1.78C400.18,166.31,400.2,166.05,399.93,165.9Z" transform="translate(-272.5 -72.4)"/><path class="cls-9" d="M394.76,162.91,391.49,161a1.08,1.08,0,0,0-1,0l-3.05,1.78c-.28.17-.3.43,0,.58l3.27,1.89a1.08,1.08,0,0,0,1,0l3.05-1.78C395,163.32,395,163.06,394.76,162.91Z" transform="translate(-272.5 -72.4)"/><path class="cls-9" d="M389.59,159.93,386.32,158a1.08,1.08,0,0,0-1,0l-3.05,1.78c-.29.17-.3.42,0,.57l3.27,1.89a1.08,1.08,0,0,0,1,0l3.05-1.78C389.83,160.34,389.85,160.08,389.59,159.93Z" transform="translate(-272.5 -72.4)"/><path class="cls-9" d="M384.42,156.94l-3.27-1.89a1.08,1.08,0,0,0-1,0l-3.05,1.78c-.29.17-.31.43,0,.58l3.26,1.89a1.14,1.14,0,0,0,1,0l3-1.78C384.66,157.35,384.68,157.09,384.42,156.94Z" transform="translate(-272.5 -72.4)"/><path class="cls-9" d="M405,168.81l-3.27-1.88a1.08,1.08,0,0,0-1,0l-3.05,1.78c-.28.17-.3.43,0,.58l3.27,1.89a1.08,1.08,0,0,0,1,0l3.05-1.78C405.22,169.22,405.24,169,405,168.81Z" transform="translate(-272.5 -72.4)"/><path class="cls-9" d="M410,171.73l-3.27-1.89a1.08,1.08,0,0,0-1,0l-3,1.78c-.29.16-.31.42,0,.57l3.26,1.89a1.1,1.1,0,0,0,1,0l3-1.78C410.27,172.14,410.29,171.88,410,171.73Z" transform="translate(-272.5 -72.4)"/><path class="cls-9" d="M415.07,174.64l-3.27-1.89a1.08,1.08,0,0,0-1,0l-3.05,1.78c-.28.17-.3.43,0,.58L411,177a1.08,1.08,0,0,0,1,0l3-1.78C415.32,175.05,415.34,174.79,415.07,174.64Z" transform="translate(-272.5 -72.4)"/><path class="cls-9" d="M420.12,177.55l-3.27-1.88a1.11,1.11,0,0,0-1,0l-3.05,1.79c-.28.16-.3.42,0,.57l3.27,1.89a1.08,1.08,0,0,0,1,0l3.05-1.78C420.36,178,420.38,177.71,420.12,177.55Z" transform="translate(-272.5 -72.4)"/><path class="cls-9" d="M425.17,180.47l-3.27-1.89a1.08,1.08,0,0,0-1,0l-3.05,1.78c-.29.17-.31.42,0,.58l3.26,1.88a1.1,1.1,0,0,0,1,0l3-1.78C425.41,180.88,425.43,180.62,425.17,180.47Z" transform="translate(-272.5 -72.4)"/><path class="cls-9" d="M430.21,183.38l-3.27-1.89a1.08,1.08,0,0,0-1,0l-3.05,1.78c-.28.17-.3.43,0,.58l3.27,1.89a1.11,1.11,0,0,0,1,0l3.05-1.78C430.46,183.79,430.47,183.53,430.21,183.38Z" transform="translate(-272.5 -72.4)"/><path class="cls-9" d="M435.26,186.29,432,184.41a1.08,1.08,0,0,0-1,0L428,186.22c-.28.16-.3.42,0,.57l3.27,1.89a1.08,1.08,0,0,0,1,0l3.05-1.78C435.5,186.7,435.52,186.45,435.26,186.29Z" transform="translate(-272.5 -72.4)"/><path class="cls-9" d="M440.31,189.21,437,187.32a1.08,1.08,0,0,0-1,0L433,189.13c-.29.17-.31.42,0,.58l3.26,1.88a1.13,1.13,0,0,0,1,0l3-1.79C440.55,189.62,440.57,189.36,440.31,189.21Z" transform="translate(-272.5 -72.4)"/><path class="cls-9" d="M445.35,192.12l-3.27-1.88a1.08,1.08,0,0,0-1,0L438,192c-.28.17-.3.43,0,.58l3.27,1.89a1.08,1.08,0,0,0,1,0l3.05-1.78C445.6,192.53,445.61,192.27,445.35,192.12Z" transform="translate(-272.5 -72.4)"/><path class="cls-9" d="M387.74,164.23l-3.27-1.89a1.08,1.08,0,0,0-1,0l-3.05,1.78c-.29.17-.31.43,0,.58l3.27,1.89a1.12,1.12,0,0,0,1,0l3.05-1.78C388,164.64,388,164.38,387.74,164.23Z" transform="translate(-272.5 -72.4)"/><path class="cls-9" d="M382.72,161.33l-3.27-1.89a1.11,1.11,0,0,0-1,0l-3,1.78c-.29.17-.31.43,0,.58l3.26,1.89a1.1,1.1,0,0,0,1,0l3-1.78C383,161.74,383,161.48,382.72,161.33Z" transform="translate(-272.5 -72.4)"/><path class="cls-9" d="M377.69,158.43l-3.26-1.88a1.1,1.1,0,0,0-1,0l-3,1.78c-.29.17-.31.43-.05.58l3.27,1.89a1.08,1.08,0,0,0,1,0l3-1.78C377.94,158.84,378,158.58,377.69,158.43Z" transform="translate(-272.5 -72.4)"/><path class="cls-9" d="M372.67,155.53l-3.27-1.88a1.11,1.11,0,0,0-1,0l-3.05,1.79c-.28.16-.3.42,0,.57l3.27,1.89a1.08,1.08,0,0,0,1,0l3.05-1.78C372.92,155.94,372.93,155.68,372.67,155.53Z" transform="translate(-272.5 -72.4)"/><path class="cls-9" d="M367.81,158.37l-3.27-1.88a1.11,1.11,0,0,0-1,0l-1,.59c-.28.17-.3.43,0,.58l3.27,1.89a1.08,1.08,0,0,0,1,0l1-.59C368.05,158.78,368.07,158.53,367.81,158.37Z" transform="translate(-272.5 -72.4)"/><path class="cls-9" d="M374.36,162.16l-3.26-1.89a1.1,1.1,0,0,0-1,0l-1,.59c-.29.16-.31.42-.05.57l3.27,1.89a1.08,1.08,0,0,0,1,0l1-.59C374.61,162.57,374.63,162.31,374.36,162.16Z" transform="translate(-272.5 -72.4)"/><path class="cls-9" d="M379.36,165l-3.26-1.88a1.1,1.1,0,0,0-1,0l-1,.58c-.29.17-.31.43,0,.58l3.26,1.89a1.08,1.08,0,0,0,1,0l1-.59C379.61,165.45,379.63,165.2,379.36,165Z" transform="translate(-272.5 -72.4)"/><path class="cls-9" d="M384.36,167.93,381.1,166a1.11,1.11,0,0,0-1,0l-1,.59c-.29.17-.31.43,0,.58l3.26,1.88a1.1,1.1,0,0,0,1,0l1-.59C384.61,168.34,384.63,168.08,384.36,167.93Z" transform="translate(-272.5 -72.4)"/><path class="cls-9" d="M389.37,170.82l-3.27-1.89a1.08,1.08,0,0,0-1,0l-1,.59c-.29.16-.31.42,0,.57l3.26,1.89a1.1,1.1,0,0,0,1,0l1-.59C389.61,171.23,389.63,171,389.37,170.82Z" transform="translate(-272.5 -72.4)"/><path class="cls-9" d="M417.28,186.94,414,185.05a1.1,1.1,0,0,0-1,0l-1,.59c-.29.16-.31.42,0,.57l3.27,1.89a1.08,1.08,0,0,0,1,0l1-.59C417.53,187.35,417.55,187.09,417.28,186.94Z" transform="translate(-272.5 -72.4)"/><path class="cls-9" d="M422.28,189.82,419,187.94a1.13,1.13,0,0,0-1,0l-1,.59c-.29.17-.31.43,0,.58l3.27,1.89a1.08,1.08,0,0,0,1,0l1-.59C422.53,190.23,422.55,190,422.28,189.82Z" transform="translate(-272.5 -72.4)"/><path class="cls-9" d="M427.28,192.71,424,190.82a1.14,1.14,0,0,0-1,0l-1,.59c-.29.17-.31.43,0,.58l3.26,1.88a1.11,1.11,0,0,0,1,0l1-.59C427.53,193.12,427.55,192.86,427.28,192.71Z" transform="translate(-272.5 -72.4)"/><path class="cls-9" d="M432.28,195.6,429,193.71a1.08,1.08,0,0,0-1,0l-1,.59c-.29.16-.31.42,0,.57l3.26,1.89a1.1,1.1,0,0,0,1,0l1-.59C432.53,196,432.55,195.75,432.28,195.6Z" transform="translate(-272.5 -72.4)"/><path class="cls-9" d="M392.78,167.14l-3.26-1.88a1.1,1.1,0,0,0-1,0l-3,1.78c-.29.16-.31.42-.05.57l3.27,1.89a1.08,1.08,0,0,0,1,0l3.05-1.78C393,167.55,393.05,167.3,392.78,167.14Z" transform="translate(-272.5 -72.4)"/><path class="cls-9" d="M397.83,170.06l-3.27-1.89a1.08,1.08,0,0,0-1,0L390.52,170c-.28.17-.3.42,0,.58l3.27,1.88a1.11,1.11,0,0,0,1,0l3.05-1.79C398.07,170.47,398.09,170.21,397.83,170.06Z" transform="translate(-272.5 -72.4)"/><path class="cls-9" d="M402.88,173l-3.27-1.88a1.08,1.08,0,0,0-1,0l-3.05,1.78c-.29.17-.31.43,0,.58l3.27,1.89a1.08,1.08,0,0,0,1,0l3-1.78C403.12,173.38,403.14,173.12,402.88,173Z" transform="translate(-272.5 -72.4)"/><path class="cls-9" d="M407.92,175.89,404.66,174a1.1,1.1,0,0,0-1,0l-3,1.78c-.29.16-.31.42-.05.57l3.27,1.89a1.08,1.08,0,0,0,1,0l3.05-1.78C408.17,176.29,408.19,176,407.92,175.89Z" transform="translate(-272.5 -72.4)"/><path class="cls-9" d="M413,178.8l-3.27-1.89a1.08,1.08,0,0,0-1,0l-3,1.78c-.28.17-.3.43,0,.58l3.27,1.88a1.08,1.08,0,0,0,1,0l3.05-1.78C413.21,179.21,413.23,179,413,178.8Z" transform="translate(-272.5 -72.4)"/><path class="cls-9" d="M418,181.71l-3.27-1.88a1.08,1.08,0,0,0-1,0l-3.05,1.78c-.29.17-.31.43,0,.58l3.27,1.89a1.08,1.08,0,0,0,1,0l3.05-1.78C418.26,182.12,418.28,181.86,418,181.71Z" transform="translate(-272.5 -72.4)"/><path class="cls-9" d="M423.06,184.63l-3.26-1.89a1.1,1.1,0,0,0-1,0l-3,1.78c-.29.17-.31.42-.05.57L419,187a1.08,1.08,0,0,0,1,0l3-1.78C423.31,185,423.33,184.78,423.06,184.63Z" transform="translate(-272.5 -72.4)"/><path class="cls-9" d="M428.11,187.54l-3.27-1.89a1.08,1.08,0,0,0-1,0l-3.05,1.78c-.28.17-.3.43,0,.58l3.27,1.88a1.08,1.08,0,0,0,1,0l3.05-1.78C428.35,188,428.37,187.69,428.11,187.54Z" transform="translate(-272.5 -72.4)"/><path class="cls-9" d="M433.16,190.45l-3.27-1.88a1.11,1.11,0,0,0-1,0l-3,1.79c-.29.16-.31.42,0,.57l3.26,1.89a1.1,1.1,0,0,0,1,0l3.05-1.78C433.4,190.86,433.42,190.61,433.16,190.45Z" transform="translate(-272.5 -72.4)"/><path class="cls-9" d="M392.55,150.89l-9.63-5.56a1.08,1.08,0,0,0-1,0l-3.05,1.78c-.28.17-.3.42,0,.58l9.62,5.55a1.13,1.13,0,0,0,1,0l3-1.79C392.79,151.3,392.81,151,392.55,150.89Z" transform="translate(-272.5 -72.4)"/><path class="cls-9" d="M454.55,186.68l-9.63-5.55a1.11,1.11,0,0,0-1,0l-3.05,1.79c-.28.16-.3.42,0,.57l9.62,5.56a1.08,1.08,0,0,0,1,0l3.05-1.78C454.79,187.09,454.81,186.83,454.55,186.68Z" transform="translate(-272.5 -72.4)"/><path class="cls-9" d="M445.19,175.18l-3.27-1.88a1.08,1.08,0,0,0-1,0l-3.64,2.13c-.28.16-.3.42,0,.57l3.27,1.89a1.08,1.08,0,0,0,1,0l3.63-2.12C445.43,175.59,445.45,175.33,445.19,175.18Z" transform="translate(-272.5 -72.4)"/><path class="cls-9" d="M408.54,154l-5.23-3a1.08,1.08,0,0,0-1,0l-3.63,2.13c-.29.16-.31.42-.05.57l5.23,3a1.08,1.08,0,0,0,1,0l3.63-2.12C408.78,154.43,408.8,154.18,408.54,154Z" transform="translate(-272.5 -72.4)"/><path class="cls-9" d="M440.32,172.38l-5.22-3a1.1,1.1,0,0,0-1,0l-3.63,2.12c-.28.16-.3.42,0,.57l5.23,3a1.08,1.08,0,0,0,1,0l3.63-2.12C440.57,172.78,440.58,172.53,440.32,172.38Z" transform="translate(-272.5 -72.4)"/><path class="cls-9" d="M415.82,158.23l-5.23-3a1.08,1.08,0,0,0-1,0L406,157.36c-.29.17-.31.42,0,.58l5.22,3a1.11,1.11,0,0,0,1,0l3.64-2.13C416.06,158.64,416.08,158.38,415.82,158.23Z" transform="translate(-272.5 -72.4)"/><path class="cls-9" d="M406,158l22.72,13.11a1.1,1.1,0,0,0,1,0l3.7-2.17c.26-.15.25-.41,0-.57l-22.72-13.12Z" transform="translate(-272.5 -72.4)"/><path class="cls-9" d="M454.48,183.26l3.64,2.1a.92.92,0,0,0,.81,0l1.49-.87c.23-.14.25-.35,0-.47l-3.64-2.1a.86.86,0,0,0-.81,0l-1.49.87C454.28,182.92,454.26,183.13,454.48,183.26Z" transform="translate(-272.5 -72.4)"/><path class="cls-9" d="M449.39,180.32l3.64,2.1a.86.86,0,0,0,.81,0l1.49-.87c.23-.13.25-.35,0-.47l-3.64-2.1a.86.86,0,0,0-.81,0l-1.48.87C449.19,180,449.18,180.2,449.39,180.32Z" transform="translate(-272.5 -72.4)"/><path class="cls-9" d="M444.34,177.41l3.64,2.1a1,1,0,0,0,.82,0l1.48-.87c.24-.14.25-.35,0-.47L446.68,176a.91.91,0,0,0-.82,0l-1.48.86C444.14,177.07,444.13,177.28,444.34,177.41Z" transform="translate(-272.5 -72.4)"/><path class="cls-9" d="M446.77,181.85l3.64,2.11a.89.89,0,0,0,.81,0l1.49-.86c.23-.14.24-.35,0-.48l-3.64-2.1a.92.92,0,0,0-.81,0l-1.49.87C446.57,181.52,446.55,181.73,446.77,181.85Z" transform="translate(-272.5 -72.4)"/></g></g></g><g class="cls-19"><path class="cls-9" d="M320.32,184.75l-3.24-1.87c-.26-.15-.23-.41.07-.58l3.82-2.21a1.15,1.15,0,0,1,1,0l3.23,1.87c.26.15.23.41-.07.58l-3.82,2.21A1.13,1.13,0,0,1,320.32,184.75Z" transform="translate(-272.5 -72.4)"/><path class="cls-9" d="M325.31,187.63l-3.23-1.86c-.26-.15-.23-.42.07-.59L326,183a1.1,1.1,0,0,1,1,0l3.24,1.87c.26.15.23.41-.07.59l-3.82,2.2A1.12,1.12,0,0,1,325.31,187.63Z" transform="translate(-272.5 -72.4)"/><path class="cls-9" d="M330.31,190.52l-3.24-1.87c-.26-.15-.22-.41.08-.58l3.82-2.21a1.13,1.13,0,0,1,1,0l3.24,1.87c.26.15.22.41-.08.58l-3.82,2.21A1.13,1.13,0,0,1,330.31,190.52Z" transform="translate(-272.5 -72.4)"/><path class="cls-9" d="M337.22,188.14,334,186.27c-.26-.15-.23-.41.07-.59l3.21-1.85a1.13,1.13,0,0,1,1,0l3.24,1.87c.26.15.22.41-.08.58l-3.2,1.86A1.15,1.15,0,0,1,337.22,188.14Z" transform="translate(-272.5 -72.4)"/><path class="cls-9" d="M342.22,191,339,189.15c-.26-.15-.23-.41.07-.58l3.2-1.85a1.12,1.12,0,0,1,1,0l3.23,1.86c.26.15.23.42-.07.59l-3.2,1.85A1.15,1.15,0,0,1,342.22,191Z" transform="translate(-272.5 -72.4)"/><path class="cls-9" d="M347.22,193.91,344,192c-.26-.15-.22-.41.08-.59l3.2-1.85a1.15,1.15,0,0,1,1,0l3.23,1.87c.26.15.23.41-.07.58l-3.21,1.86A1.13,1.13,0,0,1,347.22,193.91Z" transform="translate(-272.5 -72.4)"/><path class="cls-9" d="M352.22,196.79,349,194.93c-.26-.15-.23-.42.07-.59l3.21-1.85a1.13,1.13,0,0,1,1,0l3.24,1.87c.26.15.23.41-.07.58l-3.21,1.85A1.13,1.13,0,0,1,352.22,196.79Z" transform="translate(-272.5 -72.4)"/><path class="cls-9" d="M357.22,199.68,354,197.81c-.26-.15-.23-.41.07-.58l3.21-1.86a1.13,1.13,0,0,1,1,0l3.24,1.87c.26.15.23.41-.07.59l-3.21,1.85A1.13,1.13,0,0,1,357.22,199.68Z" transform="translate(-272.5 -72.4)"/><path class="cls-9" d="M362.21,202.57,359,200.7c-.26-.15-.23-.42.07-.59l3.21-1.85a1.13,1.13,0,0,1,1,0l3.24,1.87c.26.15.22.41-.08.58l-3.2,1.85A1.12,1.12,0,0,1,362.21,202.57Z" transform="translate(-272.5 -72.4)"/><path class="cls-9" d="M367.21,205.45,364,203.58c-.26-.15-.23-.41.07-.58l3.2-1.85a1.12,1.12,0,0,1,1-.05L371.5,203c.26.15.23.41-.07.59l-3.2,1.85A1.15,1.15,0,0,1,367.21,205.45Z" transform="translate(-272.5 -72.4)"/><path class="cls-9" d="M372.21,208.34,369,206.47c-.26-.15-.22-.41.08-.59l3.2-1.85a1.15,1.15,0,0,1,1,0l3.23,1.87c.26.15.23.41-.07.58l-3.21,1.85A1.1,1.1,0,0,1,372.21,208.34Z" transform="translate(-272.5 -72.4)"/><path class="cls-9" d="M377.21,211.22,374,209.35c-.26-.15-.23-.41.07-.58l3.21-1.85a1.1,1.1,0,0,1,1,0l3.24,1.87c.26.15.23.42-.07.59l-3.21,1.85A1.13,1.13,0,0,1,377.21,211.22Z" transform="translate(-272.5 -72.4)"/><path class="cls-9" d="M382.21,214.11,379,212.24c-.26-.15-.23-.41.07-.59l3.21-1.85a1.13,1.13,0,0,1,1,0l3.24,1.87c.26.15.23.41-.07.58l-3.21,1.86A1.13,1.13,0,0,1,382.21,214.11Z" transform="translate(-272.5 -72.4)"/><path class="cls-9" d="M344.59,186.77l-3.24-1.87c-.26-.15-.23-.41.07-.58l3.21-1.85a1.1,1.1,0,0,1,1-.05l3.24,1.87c.26.15.23.41-.07.59l-3.21,1.85A1.13,1.13,0,0,1,344.59,186.77Z" transform="translate(-272.5 -72.4)"/><path class="cls-9" d="M339.52,183.84,336.28,182c-.26-.15-.23-.41.07-.58l3.21-1.85a1.07,1.07,0,0,1,1,0l3.24,1.86c.26.15.23.42-.07.59l-3.21,1.85A1.13,1.13,0,0,1,339.52,183.84Z" transform="translate(-272.5 -72.4)"/><path class="cls-9" d="M334.43,180.91l-7-4c-.26-.15-.22-.41.08-.58l3.2-1.85a1.12,1.12,0,0,1,1,0l7,4c.26.15.22.41-.08.59l-3.2,1.85A1.15,1.15,0,0,1,334.43,180.91Z" transform="translate(-272.5 -72.4)"/><path class="cls-9" d="M338,177.34l-5.66-3.26c-.26-.15-.23-.42.07-.59l3.21-1.85a1.13,1.13,0,0,1,1,0l5.66,3.26c.26.15.23.41-.07.59L339,177.3A1.13,1.13,0,0,1,338,177.34Z" transform="translate(-272.5 -72.4)"/><path class="cls-9" d="M349.59,189.66l-3.24-1.87c-.26-.15-.23-.41.07-.59l3.21-1.85a1.13,1.13,0,0,1,1,0l3.24,1.87c.26.15.23.41-.07.58l-3.21,1.85A1.1,1.1,0,0,1,349.59,189.66Z" transform="translate(-272.5 -72.4)"/><path class="cls-9" d="M354.58,192.54l-3.23-1.87c-.26-.15-.23-.41.07-.58l3.21-1.85a1.1,1.1,0,0,1,1-.05l3.24,1.87c.26.15.22.42-.08.59l-3.2,1.85A1.15,1.15,0,0,1,354.58,192.54Z" transform="translate(-272.5 -72.4)"/><path class="cls-9" d="M359.58,195.43l-3.23-1.87c-.26-.15-.23-.41.07-.59l3.2-1.85a1.15,1.15,0,0,1,1,0l3.24,1.87c.25.15.22.41-.08.58l-3.2,1.86A1.15,1.15,0,0,1,359.58,195.43Z" transform="translate(-272.5 -72.4)"/><path class="cls-9" d="M364.58,198.31l-3.24-1.87c-.26-.15-.22-.41.08-.58l3.2-1.85a1.12,1.12,0,0,1,1,0l3.23,1.86c.26.15.23.42-.07.59l-3.21,1.85A1.13,1.13,0,0,1,364.58,198.31Z" transform="translate(-272.5 -72.4)"/><path class="cls-9" d="M369.58,201.2l-3.24-1.87c-.26-.15-.23-.41.07-.58l3.21-1.86a1.13,1.13,0,0,1,1,0l3.24,1.87c.26.15.23.41-.07.59l-3.21,1.85A1.13,1.13,0,0,1,369.58,201.2Z" transform="translate(-272.5 -72.4)"/><path class="cls-9" d="M374.58,204.08l-3.24-1.86c-.26-.15-.23-.42.07-.59l3.21-1.85a1.13,1.13,0,0,1,1,0l3.24,1.87c.26.15.23.41-.07.58L375.59,204A1.1,1.1,0,0,1,374.58,204.08Z" transform="translate(-272.5 -72.4)"/><path class="cls-9" d="M379.57,207l-3.23-1.87c-.26-.15-.23-.41.07-.58l3.21-1.86a1.13,1.13,0,0,1,1,0l3.24,1.87c.26.15.22.41-.08.59l-3.2,1.85A1.15,1.15,0,0,1,379.57,207Z" transform="translate(-272.5 -72.4)"/><path class="cls-9" d="M384.57,209.86,381.34,208c-.26-.15-.23-.41.07-.59l3.2-1.85a1.15,1.15,0,0,1,1,0l3.23,1.87c.26.15.23.41-.07.58l-3.2,1.85A1.12,1.12,0,0,1,384.57,209.86Z" transform="translate(-272.5 -72.4)"/><path class="cls-9" d="M389.57,212.74l-3.24-1.87c-.26-.15-.22-.41.08-.58l3.2-1.85a1.12,1.12,0,0,1,1-.05l3.23,1.87c.26.15.23.41-.07.59l-3.21,1.85A1.13,1.13,0,0,1,389.57,212.74Z" transform="translate(-272.5 -72.4)"/><path class="cls-9" d="M398.45,217.87l-7.06-4.08c-.26-.15-.22-.41.08-.58l3.2-1.85a1.12,1.12,0,0,1,1,0l7.06,4.07c.26.15.23.41-.07.59l-3.21,1.85A1.15,1.15,0,0,1,398.45,217.87Z" transform="translate(-272.5 -72.4)"/><path class="cls-9" d="M408.19,212.25l-6-3.44c-.26-.15-.23-.41.07-.58l3.2-1.85a1.12,1.12,0,0,1,1,0l6,3.44c.26.15.23.42-.07.59l-3.21,1.85A1.13,1.13,0,0,1,408.19,212.25Z" transform="translate(-272.5 -72.4)"/><path class="cls-9" d="M358.34,189.09l-3.24-1.87c-.26-.15-.23-.41.07-.58l3.21-1.85a1.12,1.12,0,0,1,1,0l3.23,1.87c.26.15.23.42-.07.59l-3.21,1.85A1.13,1.13,0,0,1,358.34,189.09Z" transform="translate(-272.5 -72.4)"/><path class="cls-9" d="M353.22,186.13,350,184.27c-.26-.15-.23-.42.07-.59l3.21-1.85a1.13,1.13,0,0,1,1,0l3.24,1.87c.26.15.23.41-.07.58l-3.21,1.85A1.1,1.1,0,0,1,353.22,186.13Z" transform="translate(-272.5 -72.4)"/><path class="cls-9" d="M348.09,183.18l-3.23-1.87c-.26-.15-.23-.41.07-.59l3.21-1.85a1.13,1.13,0,0,1,1,0l3.24,1.87c.26.15.22.41-.08.58l-3.2,1.86A1.15,1.15,0,0,1,348.09,183.18Z" transform="translate(-272.5 -72.4)"/><path class="cls-9" d="M343,180.22l-3.24-1.87c-.25-.15-.22-.41.08-.58l3.2-1.86a1.15,1.15,0,0,1,1,0l3.23,1.87c.26.15.23.41-.07.59l-3.2,1.85A1.15,1.15,0,0,1,343,180.22Z" transform="translate(-272.5 -72.4)"/><path class="cls-9" d="M363.34,192l-3.24-1.87c-.26-.15-.23-.41.07-.59l3.21-1.85a1.13,1.13,0,0,1,1,0l3.24,1.87c.26.15.23.41-.07.58l-3.21,1.86A1.13,1.13,0,0,1,363.34,192Z" transform="translate(-272.5 -72.4)"/><path class="cls-9" d="M368.33,194.86,365.1,193c-.26-.15-.23-.41.07-.58l3.21-1.85a1.1,1.1,0,0,1,1,0l3.24,1.86c.26.15.22.42-.08.59l-3.2,1.85A1.15,1.15,0,0,1,368.33,194.86Z" transform="translate(-272.5 -72.4)"/><path class="cls-9" d="M373.33,197.75l-3.23-1.87c-.26-.15-.23-.41.07-.59l3.21-1.85a1.13,1.13,0,0,1,1,0l3.24,1.87c.26.15.22.41-.08.59l-3.2,1.85A1.15,1.15,0,0,1,373.33,197.75Z" transform="translate(-272.5 -72.4)"/><path class="cls-9" d="M378.33,200.63l-3.24-1.86c-.26-.15-.22-.42.08-.59l3.2-1.85a1.15,1.15,0,0,1,1,0l3.23,1.87c.26.15.23.41-.07.58l-3.21,1.85A1.1,1.1,0,0,1,378.33,200.63Z" transform="translate(-272.5 -72.4)"/><path class="cls-9" d="M383.33,203.52l-3.24-1.87c-.26-.15-.23-.41.07-.58l3.21-1.86a1.15,1.15,0,0,1,1,0l3.23,1.87c.26.15.23.41-.07.59l-3.21,1.85A1.13,1.13,0,0,1,383.33,203.52Z" transform="translate(-272.5 -72.4)"/><path class="cls-9" d="M388.33,206.41l-3.24-1.87c-.26-.15-.23-.42.07-.59l3.21-1.85a1.13,1.13,0,0,1,1,0l3.24,1.87c.26.15.23.41-.07.58l-3.21,1.85A1.1,1.1,0,0,1,388.33,206.41Z" transform="translate(-272.5 -72.4)"/><path class="cls-9" d="M393.32,209.29l-3.23-1.87c-.26-.15-.23-.41.07-.58l3.21-1.85a1.1,1.1,0,0,1,1-.05l3.24,1.87c.26.15.22.41-.08.59l-3.2,1.85A1.15,1.15,0,0,1,393.32,209.29Z" transform="translate(-272.5 -72.4)"/><path class="cls-9" d="M398.32,212.18l-3.23-1.87c-.26-.15-.23-.41.07-.59l3.21-1.85a1.13,1.13,0,0,1,1,0l3.24,1.87c.26.15.22.41-.08.58l-3.2,1.85A1.12,1.12,0,0,1,398.32,212.18Z" transform="translate(-272.5 -72.4)"/><path class="cls-9" d="M403.32,215.06l-3.24-1.87c-.26-.15-.22-.41.08-.58l3.2-1.85a1.12,1.12,0,0,1,1,0l3.23,1.87c.26.15.23.42-.07.59L404.33,215A1.13,1.13,0,0,1,403.32,215.06Z" transform="translate(-272.5 -72.4)"/><path class="cls-9" d="M355.71,182l-3.24-1.86c-.26-.15-.23-.42.07-.59l3.21-1.85a1.13,1.13,0,0,1,1,0l3.24,1.87c.26.15.23.41-.07.58l-3.21,1.85A1.1,1.1,0,0,1,355.71,182Z" transform="translate(-272.5 -72.4)"/><path class="cls-9" d="M350.73,179.08l-3.23-1.87c-.26-.15-.23-.41.07-.58l3.21-1.85a1.1,1.1,0,0,1,1,0L355,176.6c.26.15.22.42-.08.59l-3.2,1.85A1.15,1.15,0,0,1,350.73,179.08Z" transform="translate(-272.5 -72.4)"/><path class="cls-9" d="M345.76,176.21l-3.24-1.87c-.26-.15-.22-.41.08-.58l3.2-1.85a1.12,1.12,0,0,1,1,0l3.23,1.87c.26.15.23.42-.07.59l-3.21,1.85A1.13,1.13,0,0,1,345.76,176.21Z" transform="translate(-272.5 -72.4)"/><path class="cls-9" d="M340.79,173.34l-3.24-1.87c-.26-.15-.23-.41.07-.58l3.21-1.85a1.1,1.1,0,0,1,1,0l3.24,1.87c.26.15.23.41-.07.59l-3.21,1.85A1.13,1.13,0,0,1,340.79,173.34Z" transform="translate(-272.5 -72.4)"/><path class="cls-9" d="M345.9,170.39l-3.24-1.87c-.26-.15-.22-.41.08-.59l1.06-.61a1.13,1.13,0,0,1,1,0l3.24,1.87c.26.15.22.41-.08.58l-1.06.62A1.13,1.13,0,0,1,345.9,170.39Z" transform="translate(-272.5 -72.4)"/><path class="cls-9" d="M352.39,174.14l-3.24-1.87c-.26-.15-.22-.42.08-.59l1.06-.61a1.13,1.13,0,0,1,1,0l3.24,1.87c.26.15.22.41-.08.58l-1.06.61A1.1,1.1,0,0,1,352.39,174.14Z" transform="translate(-272.5 -72.4)"/><path class="cls-9" d="M357.34,177l-3.23-1.86c-.26-.15-.23-.42.07-.59l1.06-.61a1.13,1.13,0,0,1,1,0l3.24,1.87c.26.15.23.41-.07.58l-1.06.61A1.12,1.12,0,0,1,357.34,177Z" transform="translate(-272.5 -72.4)"/><path class="cls-9" d="M362.3,179.85,359.06,178c-.26-.15-.23-.42.07-.59l1.06-.61a1.12,1.12,0,0,1,1,0l3.23,1.86c.26.15.23.42-.07.59l-1.06.61A1.1,1.1,0,0,1,362.3,179.85Z" transform="translate(-272.5 -72.4)"/><path class="cls-9" d="M367.25,182.71,364,180.84c-.26-.15-.23-.41.07-.58l1.06-.61a1.12,1.12,0,0,1,1,0l3.23,1.86c.26.15.23.42-.07.59l-1.06.61A1.13,1.13,0,0,1,367.25,182.71Z" transform="translate(-272.5 -72.4)"/><path class="cls-9" d="M394.9,198.68l-3.24-1.87c-.26-.15-.23-.41.07-.59l1.06-.61a1.15,1.15,0,0,1,1,0l3.23,1.87c.26.15.23.41-.07.58l-1.06.61A1.1,1.1,0,0,1,394.9,198.68Z" transform="translate(-272.5 -72.4)"/><path class="cls-9" d="M399.85,201.54l-3.24-1.87c-.26-.15-.22-.42.08-.59l1.06-.61a1.13,1.13,0,0,1,1,0L402,200.3c.26.15.22.41-.08.58l-1.06.61A1.1,1.1,0,0,1,399.85,201.54Z" transform="translate(-272.5 -72.4)"/><path class="cls-9" d="M404.8,204.39l-3.23-1.86c-.26-.15-.23-.42.07-.59l1.06-.61a1.13,1.13,0,0,1,1,0l3.24,1.87c.26.15.23.41-.07.58l-1.06.61A1.12,1.12,0,0,1,404.8,204.39Z" transform="translate(-272.5 -72.4)"/><path class="cls-9" d="M409.75,207.25l-3.23-1.86c-.26-.15-.23-.42.07-.59l1.06-.61a1.1,1.1,0,0,1,1,0L411.9,206c.26.15.23.42-.07.59l-1.06.61A1.12,1.12,0,0,1,409.75,207.25Z" transform="translate(-272.5 -72.4)"/><path class="cls-9" d="M360.7,184.84,357.47,183c-.26-.15-.23-.41.07-.58l3.21-1.86a1.13,1.13,0,0,1,1,0l3.24,1.87c.26.15.23.41-.07.59l-3.21,1.85A1.15,1.15,0,0,1,360.7,184.84Z" transform="translate(-272.5 -72.4)"/><path class="cls-9" d="M365.7,187.73l-3.23-1.87c-.26-.15-.23-.41.07-.59l3.21-1.85a1.13,1.13,0,0,1,1,0l3.24,1.87c.26.15.22.41-.08.58l-3.2,1.85A1.12,1.12,0,0,1,365.7,187.73Z" transform="translate(-272.5 -72.4)"/><path class="cls-9" d="M370.7,190.61l-3.24-1.87c-.26-.15-.22-.41.08-.58l3.2-1.85a1.12,1.12,0,0,1,1-.05l3.23,1.87c.26.15.23.41-.07.59l-3.21,1.85A1.13,1.13,0,0,1,370.7,190.61Z" transform="translate(-272.5 -72.4)"/><path class="cls-9" d="M375.7,193.5l-3.24-1.87c-.26-.15-.23-.41.07-.59l3.21-1.85a1.15,1.15,0,0,1,1,0L380,191c.26.15.23.41-.07.58l-3.21,1.85A1.1,1.1,0,0,1,375.7,193.5Z" transform="translate(-272.5 -72.4)"/><path class="cls-9" d="M380.7,196.38l-3.24-1.87c-.26-.15-.23-.41.07-.58l3.21-1.85a1.1,1.1,0,0,1,1,0L385,193.9c.26.15.23.42-.07.59l-3.21,1.85A1.13,1.13,0,0,1,380.7,196.38Z" transform="translate(-272.5 -72.4)"/><path class="cls-9" d="M385.69,199.27l-3.23-1.87c-.26-.15-.23-.41.07-.59l3.21-1.85a1.13,1.13,0,0,1,1,0l3.24,1.87c.26.15.23.41-.07.58l-3.21,1.86A1.15,1.15,0,0,1,385.69,199.27Z" transform="translate(-272.5 -72.4)"/><path class="cls-9" d="M390.69,202.15l-3.23-1.86c-.26-.15-.23-.42.07-.59l3.21-1.85a1.13,1.13,0,0,1,1,0l3.24,1.86c.26.16.22.42-.08.59l-3.2,1.85A1.15,1.15,0,0,1,390.69,202.15Z" transform="translate(-272.5 -72.4)"/><path class="cls-9" d="M395.69,205l-3.24-1.87c-.26-.15-.22-.41.08-.58l3.2-1.86a1.15,1.15,0,0,1,1,0l3.23,1.87c.26.15.23.41-.07.59L396.7,205A1.13,1.13,0,0,1,395.69,205Z" transform="translate(-272.5 -72.4)"/><path class="cls-9" d="M400.69,207.92l-3.24-1.86c-.26-.15-.23-.42.07-.59l3.21-1.85a1.15,1.15,0,0,1,1,0l3.23,1.87c.26.15.23.41-.07.58l-3.21,1.85A1.1,1.1,0,0,1,400.69,207.92Z" transform="translate(-272.5 -72.4)"/><path class="cls-9" d="M332.13,185.2l-9.53-5.51c-.26-.15-.23-.41.07-.58l3.21-1.85a1.1,1.1,0,0,1,1,0l9.53,5.51c.26.15.23.41-.07.58l-3.21,1.85A1.1,1.1,0,0,1,332.13,185.2Z" transform="translate(-272.5 -72.4)"/><path class="cls-9" d="M393.53,220.65,384,215.14c-.26-.15-.23-.41.07-.58l3.21-1.85a1.1,1.1,0,0,1,1-.05l9.54,5.51c.25.15.22.41-.08.58l-3.2,1.85A1.12,1.12,0,0,1,393.53,220.65Z" transform="translate(-272.5 -72.4)"/><path class="cls-9" d="M373.54,215.48l-3.23-1.87c-.26-.15-.23-.41.07-.58l3.82-2.21a1.13,1.13,0,0,1,1,0l3.24,1.87c.26.15.23.41-.07.58l-3.82,2.21A1.15,1.15,0,0,1,373.54,215.48Z" transform="translate(-272.5 -72.4)"/><path class="cls-9" d="M337.25,194.53l-5.18-3c-.26-.15-.22-.41.08-.59l3.82-2.2a1.1,1.1,0,0,1,1-.05l5.18,3c.26.15.22.41-.08.59l-3.82,2.2A1.1,1.1,0,0,1,337.25,194.53Z" transform="translate(-272.5 -72.4)"/><path class="cls-9" d="M368.73,212.7l-5.18-3c-.26-.15-.22-.41.08-.58l3.82-2.21a1.13,1.13,0,0,1,1,0l5.18,3c.25.15.22.41-.08.58l-3.82,2.21A1.13,1.13,0,0,1,368.73,212.7Z" transform="translate(-272.5 -72.4)"/><path class="cls-9" d="M344.46,198.69l-5.18-3c-.26-.15-.22-.41.08-.58l3.82-2.21a1.13,1.13,0,0,1,1,0l5.18,3c.26.15.22.41-.08.58l-3.82,2.21A1.13,1.13,0,0,1,344.46,198.69Z" transform="translate(-272.5 -72.4)"/><path class="cls-9" d="M344.23,192.89l22.5,13a.31.31,0,0,1,0,.58l-3.9,2.25a1.12,1.12,0,0,1-1,0l-22.5-13Z" transform="translate(-272.5 -72.4)"/><path class="cls-9" d="M387.51,220.71l3.61,2.08c.21.13.18.34-.06.48l-1.56.91a1,1,0,0,1-.84,0l-3.6-2.08c-.21-.12-.19-.34.06-.48l1.56-.9A.91.91,0,0,1,387.51,220.71Z" transform="translate(-272.5 -72.4)"/><path class="cls-9" d="M382.47,217.8l3.61,2.08c.21.13.18.34-.06.48l-1.56.91a1,1,0,0,1-.84,0l-3.6-2.08c-.21-.12-.19-.34.06-.48l1.56-.9A.94.94,0,0,1,382.47,217.8Z" transform="translate(-272.5 -72.4)"/><path class="cls-9" d="M377.48,214.92l3.6,2.08c.21.12.19.34-.06.48l-1.56.9a.94.94,0,0,1-.83,0L375,216.33c-.21-.12-.18-.33.06-.48l1.56-.9A.93.93,0,0,1,377.48,214.92Z" transform="translate(-272.5 -72.4)"/><path class="cls-9" d="M385.23,216.21l3.61,2.08c.21.12.18.34-.06.48l-1.56.9a1,1,0,0,1-.84,0l-3.6-2.08c-.21-.13-.19-.34.06-.48l1.56-.91A.94.94,0,0,1,385.23,216.21Z" transform="translate(-272.5 -72.4)"/></g><path class="cls-20" d="M436.22,138.45a1.57,1.57,0,0,1-.75-.22,2.19,2.19,0,0,1-1.06-2.23,1.11,1.11,0,0,1,.63-.8,1.33,1.33,0,0,1,1.2.12,2.2,2.2,0,0,1,1.06,2.23,1.08,1.08,0,0,1-1.08.9Zm-.73-3a.81.81,0,0,0-.31.06.81.81,0,0,0-.43.57,1.84,1.84,0,0,0,.89,1.85,1,1,0,0,0,.89.11.78.78,0,0,0,.43-.57,1.84,1.84,0,0,0-.89-1.85A1.17,1.17,0,0,0,435.49,135.45Z" transform="translate(-272.5 -72.4)"/><path class="cls-20" d="M440.34,140.83a1.57,1.57,0,0,1-.75-.22,2.2,2.2,0,0,1-1.06-2.23,1.14,1.14,0,0,1,.64-.81,1.37,1.37,0,0,1,1.2.13,2.21,2.21,0,0,1,1.05,2.23,1.08,1.08,0,0,1-1.08.9Zm-.73-3a.81.81,0,0,0-.31.06.81.81,0,0,0-.43.57,1.84,1.84,0,0,0,.89,1.85,1,1,0,0,0,.89.11.78.78,0,0,0,.43-.57h0a1.84,1.84,0,0,0-.89-1.85A1.17,1.17,0,0,0,439.61,137.83Z" transform="translate(-272.5 -72.4)"/><path class="cls-20" d="M445.37,142.27a1,1,0,0,1-1.57.57,2,2,0,0,1-1-2,1,1,0,0,1,1.58-.57A2,2,0,0,1,445.37,142.27Z" transform="translate(-272.5 -72.4)"/><polygon class="cls-20" points="93.86 24.4 91.66 23.13 91.83 22.11 94.03 23.38 93.86 24.4"/><polygon class="cls-20" points="97.06 26.25 94.86 24.98 95.03 23.96 97.24 25.23 97.06 26.25"/><polygon class="cls-20" points="90.69 22.57 85.86 19.78 86.03 18.76 90.86 21.55 90.69 22.57"/><polygon class="cls-20" points="90.91 32.59 85.64 29.55 85.85 28.33 91.12 31.37 90.91 32.59"/><polygon class="cls-20" points="95.41 35.18 92.77 33.66 92.98 32.45 95.61 33.97 95.41 35.18"/><polygon class="cls-20" points="91.99 36.34 89.74 35.05 89.95 33.83 92.19 35.12 91.99 36.34"/><polygon class="cls-20" points="95.75 38.51 93.11 36.99 93.32 35.77 95.95 37.29 95.75 38.51"/><polygon class="cls-20" points="99.62 43.88 89.27 37.9 89.47 36.68 99.82 42.66 99.62 43.88"/><polygon class="cls-20" points="90.64 67.78 80.29 61.8 80.5 60.59 90.85 66.56 90.64 67.78"/><polygon class="cls-20" points="94.62 70.08 91.99 68.56 92.19 67.34 94.83 68.86 94.62 70.08"/><polygon class="cls-20" points="91.03 42.05 88.79 40.76 88.99 39.54 91.23 40.83 91.03 42.05"/><polygon class="cls-20" points="94.79 44.22 92.16 42.7 92.36 41.48 94.99 43 94.79 44.22"/><polygon class="cls-20" points="94 46.9 88.31 43.61 88.51 42.39 94.2 45.68 94 46.9"/><polygon class="cls-20" points="97.81 49.09 95.17 47.58 95.38 46.36 98.01 47.88 97.81 49.09"/><polygon class="cls-20" points="101.64 51.31 99 49.78 99.21 48.57 101.84 50.09 101.64 51.31"/><polygon class="cls-20" points="107.81 54.87 102.83 52 103.03 50.78 108.02 53.66 107.81 54.87"/><polygon class="cls-20" points="103.87 58.86 101.24 57.34 101.44 56.12 104.07 57.64 103.87 58.86"/><polygon class="cls-20" points="110.05 62.43 105.06 59.55 105.27 58.33 110.25 61.21 110.05 62.43"/><polygon class="cls-20" points="89.98 50.84 87.35 49.32 87.55 48.1 90.19 49.62 89.98 50.84"/><polygon class="cls-20" points="93.81 53.05 91.18 51.53 91.38 50.31 94.02 51.84 93.81 53.05"/><polygon class="cls-20" points="99.99 56.62 95.01 53.74 95.21 52.52 100.19 55.4 99.99 56.62"/><polygon class="cls-20" points="108.09 58.16 105.45 56.64 105.66 55.42 108.29 56.95 108.09 58.16"/><polygon class="cls-20" points="111.92 60.37 109.28 58.85 109.49 57.63 112.12 59.16 111.92 60.37"/><polygon class="cls-20" points="118.1 63.94 113.11 61.06 113.32 59.85 118.3 62.72 118.1 63.94"/><polygon class="cls-20" points="98.74 72.46 96.11 70.94 96.31 69.72 98.95 71.24 98.74 72.46"/><polygon class="cls-20" points="104.92 76.02 99.94 73.15 100.14 71.93 105.13 74.81 104.92 76.02"/><polygon class="cls-20" points="89.03 56.55 86.39 55.03 86.6 53.81 89.23 55.34 89.03 56.55"/><polygon class="cls-20" points="95.2 60.12 90.22 57.24 90.42 56.02 95.41 58.9 95.2 60.12"/><polygon class="cls-20" points="101.61 77.24 98.98 75.72 99.18 74.51 101.82 76.03 101.61 77.24"/><polygon class="cls-20" points="107.79 80.81 102.81 77.93 103.01 76.72 108 79.59 107.79 80.81"/><polygon class="cls-20" points="107.49 48.42 104.86 46.9 105.06 45.68 107.69 47.2 107.49 48.42"/><polygon class="cls-20" points="103.51 46.12 100.87 44.6 101.08 43.38 103.71 44.91 103.51 46.12"/><polygon class="cls-20" points="113.67 51.99 108.68 49.11 108.89 47.9 113.87 50.77 113.67 51.99"/><polygon class="cls-20" points="90.2 47.84 87.83 46.47 88.03 45.25 90.41 46.62 90.2 47.84"/><polygon class="cls-20" points="97.25 51.91 91.48 48.57 91.68 47.35 97.46 50.69 97.25 51.91"/><polygon class="cls-20" points="104.3 55.98 98.52 52.64 98.73 51.42 104.5 54.76 104.3 55.98"/><polygon class="cls-20" points="117.33 54.1 114.95 52.73 115.16 51.51 117.53 52.89 117.33 54.1"/><polygon class="cls-20" points="124.38 58.17 118.6 54.84 118.8 53.62 124.58 56.95 124.38 58.17"/><polygon class="cls-20" points="131.42 62.24 125.65 58.91 125.85 57.69 131.63 61.02 131.42 62.24"/><polygon class="cls-20" points="92.7 55.54 86.92 52.21 87.13 50.99 92.9 54.32 92.7 55.54"/><polygon class="cls-20" points="95.74 57.3 93.97 56.27 94.17 55.06 95.95 56.08 95.74 57.3"/><polygon class="cls-20" points="98.8 59.06 97.02 58.04 97.22 56.82 99 57.84 98.8 59.06"/><polygon class="cls-20" points="104.44 62.32 100.07 59.8 100.28 58.58 104.64 61.1 104.44 62.32"/><polygon class="cls-20" points="110.76 56.57 108.99 55.55 109.19 54.33 110.96 55.36 110.76 56.57"/><polygon class="cls-20" points="116.4 59.83 112.04 57.31 112.24 56.09 116.61 58.61 116.4 59.83"/><polygon class="cls-20" points="117.59 60.52 113.22 58 113.43 56.78 117.79 59.3 117.59 60.52"/><polygon class="cls-20" points="94.35 76.18 88.66 72.9 88.87 71.68 94.56 74.97 94.35 76.18"/><polygon class="cls-20" points="98.16 78.38 95.53 76.86 95.73 75.64 98.37 77.17 98.16 78.38"/><polygon class="cls-20" points="101.99 80.59 99.36 79.07 99.56 77.86 102.19 79.38 101.99 80.59"/><polygon class="cls-20" points="108.17 84.16 103.19 81.28 103.39 80.06 108.37 82.94 108.17 84.16"/><polygon class="cls-20" points="112.12 86.44 109.49 84.92 109.69 83.7 112.33 85.22 112.12 86.44"/><polygon class="cls-20" points="118.3 90.01 113.32 87.13 113.52 85.92 118.5 88.79 118.3 90.01"/><polygon class="cls-20" points="99.35 85.33 96.71 83.81 96.92 82.59 99.55 84.11 99.35 85.33"/><polygon class="cls-20" points="105.53 88.9 100.54 86.02 100.75 84.8 105.73 87.68 105.53 88.9"/><polygon class="cls-20" points="85.59 77.39 82.95 75.87 83.16 74.65 85.79 76.17 85.59 77.39"/><polygon class="cls-20" points="89.42 79.6 86.78 78.08 86.99 76.86 89.62 78.38 89.42 79.6"/><polygon class="cls-20" points="95.6 83.17 90.61 80.29 90.82 79.07 95.8 81.95 95.6 83.17"/><polygon class="cls-20" points="90.56 77.13 88.18 75.75 88.39 74.54 90.76 75.91 90.56 77.13"/><polygon class="cls-20" points="97.61 81.19 91.83 77.86 92.03 76.64 97.81 79.98 97.61 81.19"/><polygon class="cls-20" points="104.65 85.26 98.88 81.93 99.08 80.71 104.86 84.05 104.65 85.26"/><polygon class="cls-20" points="83.64 79.4 77.87 76.06 78.07 74.84 83.85 78.18 83.64 79.4"/><polygon class="cls-20" points="86.69 81.15 84.92 80.13 85.12 78.91 86.89 79.94 86.69 81.15"/><polygon class="cls-20" points="89.74 82.92 87.97 81.89 88.17 80.67 89.94 81.7 89.74 82.92"/><polygon class="cls-20" points="95.38 86.17 91.02 83.65 91.22 82.44 95.59 84.95 95.38 86.17"/><polygon class="cls-20" points="96.57 86.86 92.2 84.34 92.41 83.12 96.77 85.64 96.57 86.86"/><polygon class="cls-20" points="86.25 68.37 84.47 67.35 84.68 66.13 86.45 67.15 86.25 68.37"/><polygon class="cls-20" points="91.89 71.63 87.52 69.11 87.73 67.89 92.09 70.41 91.89 71.63"/><polygon class="cls-20" points="97.65 74.96 93.29 72.44 93.49 71.22 97.86 73.74 97.65 74.96"/><polygon class="cls-20" points="119.86 94.04 117.23 92.52 117.43 91.31 120.07 92.83 119.86 94.04"/><polygon class="cls-20" points="126.04 97.61 121.06 94.73 121.26 93.52 126.25 96.39 126.04 97.61"/><polygon class="cls-20" points="110.14 88.43 105.77 85.91 105.98 84.69 110.34 87.21 110.14 88.43"/><polygon class="cls-20" points="115.9 91.76 111.54 89.24 111.74 88.02 116.11 90.54 115.9 91.76"/><polygon class="cls-20" points="83.16 56.3 81.39 55.27 81.59 54.06 83.36 55.08 83.16 56.3"/><polygon class="cls-20" points="88.8 59.55 84.44 57.03 84.64 55.82 89.01 58.34 88.8 59.55"/><polygon class="cls-20" points="94.57 62.88 90.2 60.36 90.41 59.15 94.77 61.66 94.57 62.88"/><path class="cls-20" d="M434.44,167a1.72,1.72,0,0,1-.85-.24l-24.15-13.94a3.38,3.38,0,0,1-1.44-3.25l1.55-9.21a1.76,1.76,0,0,1,.9-1.35,1.52,1.52,0,0,1,1.44.11L436,153a3.37,3.37,0,0,1,1.44,3.25l-1.55,9.21a1.74,1.74,0,0,1-.9,1.36A1.43,1.43,0,0,1,434.44,167ZM411,139.26a.93.93,0,0,0-.4.09,1.35,1.35,0,0,0-.67,1.05l-1.55,9.21a2.93,2.93,0,0,0,1.24,2.82l24.14,13.94a1.11,1.11,0,0,0,1,.1,1.34,1.34,0,0,0,.68-1.05l1.54-9.21a2.91,2.91,0,0,0-1.24-2.82l-24.14-13.94A1.38,1.38,0,0,0,411,139.26Z" transform="translate(-272.5 -72.4)"/><path class="cls-20" d="M431.79,182.8a1.78,1.78,0,0,1-.86-.24l-24.14-13.94a3.36,3.36,0,0,1-1.44-3.25l1.54-9.21a1.75,1.75,0,0,1,.91-1.35,1.5,1.5,0,0,1,1.43.11l24.14,13.94a3.35,3.35,0,0,1,1.44,3.25l-1.54,9.21a1.75,1.75,0,0,1-.91,1.35A1.25,1.25,0,0,1,431.79,182.8Zm-23.41-27.71a.9.9,0,0,0-.4.09,1.34,1.34,0,0,0-.68,1l-1.54,9.21a2.91,2.91,0,0,0,1.24,2.82l24.14,13.94a1.11,1.11,0,0,0,1.05.1,1.34,1.34,0,0,0,.67-1.05l1.55-9.21a2.93,2.93,0,0,0-1.24-2.82L409,155.28A1.38,1.38,0,0,0,408.38,155.09Z" transform="translate(-272.5 -72.4)"/><path class="cls-21" d="M411.63,151.76c.43.25.81.16.95-.23l2.82-7.69c.32-.88,1.63-.08,1.91,1.16l1.73,7.74a2.29,2.29,0,0,0,1,1.39l.41.23c.4.24.77.17.92-.17l.58-1.21c.35-.75,1.54,0,1.86,1.12h0a2.23,2.23,0,0,0,.94,1.28l.36.21c.44.26.83.15,1-.25l.52-1.61c.3-.91,1.62-.15,1.92,1.1l1.73,7.16a2.26,2.26,0,0,0,1,1.37Z" transform="translate(-272.5 -72.4)"/><path class="cls-20" d="M428.11,179.16a2.47,2.47,0,0,1-1.07-1.5l-1.74-7.17a1.69,1.69,0,0,0-1.19-1.33.29.29,0,0,0-.32.25l-.53,1.61a.73.73,0,0,1-.43.49,1,1,0,0,1-.82-.12l-.37-.21a2.4,2.4,0,0,1-1-1.41,1.69,1.69,0,0,0-1.16-1.27.29.29,0,0,0-.32.19l-.57,1.21a.68.68,0,0,1-.44.39,1,1,0,0,1-.78-.13l-.41-.24a2.4,2.4,0,0,1-1.06-1.52l-1.74-7.74a1.69,1.69,0,0,0-1.19-1.36c-.16,0-.26.06-.32.23l-2.82,7.69a.71.71,0,0,1-.43.46,1,1,0,0,1-.82-.12l.21-.36a.56.56,0,0,0,.46.09.31.31,0,0,0,.19-.21l2.82-7.69a.73.73,0,0,1,.74-.51,2.13,2.13,0,0,1,1.57,1.69l1.73,7.74a2,2,0,0,0,.87,1.25l.41.24a.58.58,0,0,0,.45.1.32.32,0,0,0,.18-.18l.58-1.21a.71.71,0,0,1,.73-.43,2.1,2.1,0,0,1,1.52,1.58,2,2,0,0,0,.84,1.16l.36.21a.54.54,0,0,0,.47.09.32.32,0,0,0,.19-.23l.52-1.61a.75.75,0,0,1,.73-.54,2.09,2.09,0,0,1,1.59,1.66l1.73,7.16a2,2,0,0,0,.87,1.23Z" transform="translate(-272.5 -72.4)"/></g></g></svg>