<svg id="Layer_1" data-name="Layer 1" xmlns="http://www.w3.org/2000/svg" xmlns:xlink="http://www.w3.org/1999/xlink" viewBox="0 0 435.25 353.92"><defs><style>.cls-1{fill:#00599e;}.cls-2{opacity:0.05;}.cls-18,.cls-2{isolation:isolate;}.cls-3{fill:#164791;}.cls-4{fill:#1a56b0;}.cls-5{fill:#164995;}.cls-6{fill:#226ee0;}.cls-7{fill:#c9c9c9;}.cls-8{fill:#fff;}.cls-9{fill:#d9d9d9;}.cls-10{fill:#0a0a0a;}.cls-11{fill:#5cffc0;}.cls-12{fill:#bfbfbf;}.cls-13{fill:#d3d3d3;}.cls-14{fill:#1951a5;}.cls-15{fill:#8895c7;}.cls-16{fill:#98b3e6;}.cls-17{fill:none;}.cls-18{fill-rule:evenodd;opacity:0.2;fill:url(#linear-gradient);}</style><linearGradient id="linear-gradient" x1="242.11" y1="371.75" x2="262.31" y2="58.2" gradientTransform="matrix(1, 0, 0, -1, -24.57, 370.35)" gradientUnits="userSpaceOnUse"><stop offset="0" stop-color="#fff"/><stop offset="0.13" stop-color="#fafafa"/><stop offset="0.3" stop-color="#ebebeb"/><stop offset="0.46" stop-color="#d3d3d3"/><stop offset="0.65" stop-color="#b2b2b2"/><stop offset="0.84" stop-color="#878787"/><stop offset="0.89" stop-color="#7c7c7c"/></linearGradient></defs><title>Tablet</title><path class="cls-1" d="M54.47,258.68A6.91,6.91,0,0,1,57,256.13l153.87-89.57a23.11,23.11,0,0,1,23.09,0L443,287a7,7,0,0,1,3.32,4.42,7.13,7.13,0,0,1-.73,5.29,6.77,6.77,0,0,1-2.57,2.55l-153,89a25,25,0,0,1-24.93,0l-208-119.92a7,7,0,0,1-3.32-4.41A7.23,7.23,0,0,1,54.47,258.68Z" transform="translate(-24.57 -37.65)"/><path class="cls-2" d="M31,248.23a4.29,4.29,0,0,1,1.66-1.64L186.5,157a20.62,20.62,0,0,1,20.61,0L416.05,277.47a4.48,4.48,0,0,1,2.16,2.83,4.69,4.69,0,0,1-.48,3.42,4.31,4.31,0,0,1-1.67,1.64l-152.95,89a22.48,22.48,0,0,1-22.44,0l-208-119.92a4.45,4.45,0,0,1-2.14-2.83A4.64,4.64,0,0,1,31,248.23Z" transform="translate(-24.57 -37.65)"/><path class="cls-3" d="M421.58,278.24v.62L234.65,171a25.1,25.1,0,0,0-25.09,0L74.31,249.87H51.2v6.18h0v2.05h.26a8.89,8.89,0,0,0,4.22,5.76l208,119.92a26.91,26.91,0,0,0,26.92,0l152.94-89.56a8.84,8.84,0,0,0,4.41-7.28h.07v-8.7Z" transform="translate(-24.57 -37.65)"/><path class="cls-4" d="M55.45,263.66l.23.17,13.11,7.55V249.87H55.49Z" transform="translate(-24.57 -37.65)"/><path class="cls-4" d="M448,286.94h.07v-8.7h-26.5v.62l-14.8-8.53-53.7,15.06-89.46,94.25.1,4.14a26.91,26.91,0,0,0,26.92,0l152.94-89.56A8.82,8.82,0,0,0,448,286.94Z" transform="translate(-24.57 -37.65)"/><path class="cls-5" d="M266.35,385.07a26.81,26.81,0,0,0,20.46.46v-7.38H266.38Z" transform="translate(-24.57 -37.65)"/><path class="cls-3" d="M443.58,291.67,290.64,381.23a26.87,26.87,0,0,1-26.92,0l-208-119.94a9,9,0,0,1-4.26-5.76h-.25V256h0v2.06h.25a9,9,0,0,0,4.26,5.78l208,119.92a26.91,26.91,0,0,0,26.92,0l152.94-89.56a8.84,8.84,0,0,0,4.41-7.28h.07V284.4H448A8.81,8.81,0,0,1,443.58,291.67Z" transform="translate(-24.57 -37.65)"/><path class="cls-6" d="M263.75,376.16l-208-120a9,9,0,0,1,0-15.63L209.56,151a25.1,25.1,0,0,1,25.09,0l209,120.47a9,9,0,0,1,0,15.63l-152.93,89A26.91,26.91,0,0,1,263.75,376.16Z" transform="translate(-24.57 -37.65)"/><path class="cls-7" d="M54.12,244.86a6.75,6.75,0,0,1,2.58-2.56l153.86-89.57a23.13,23.13,0,0,1,23.1,0l209,120.45a6.93,6.93,0,0,1,3.32,4.41,7.18,7.18,0,0,1-.73,5.29,6.91,6.91,0,0,1-2.57,2.55l-153,89a25,25,0,0,1-24.93,0l-208-119.92a6.93,6.93,0,0,1-3.32-4.41A7.19,7.19,0,0,1,54.12,244.86Z" transform="translate(-24.57 -37.65)"/><path class="cls-8" d="M57,244.86a4.48,4.48,0,0,1,1.67-1.65l153.87-89.57a20.64,20.64,0,0,1,20.62,0L442.08,274.09a4.47,4.47,0,0,1,2.15,2.84,4.61,4.61,0,0,1-.47,3.41,4.48,4.48,0,0,1-1.67,1.65L289.14,371a22.5,22.5,0,0,1-22.45,0l-208-119.92a4.52,4.52,0,0,1-2.15-2.83A4.68,4.68,0,0,1,57,244.86Z" transform="translate(-24.57 -37.65)"/><path class="cls-9" d="M443.62,287.09l-152.95,89a26.91,26.91,0,0,1-26.92,0l-208-119.92A8.81,8.81,0,0,1,51.4,250a8.94,8.94,0,0,0,4.32,9.42l208,120a26.91,26.91,0,0,0,26.92,0l153-89a8.94,8.94,0,0,0,4.3-9.4A8.87,8.87,0,0,1,443.62,287.09Z" transform="translate(-24.57 -37.65)"/><polygon class="cls-10" points="209.22 123.92 392.34 229.5 233.1 322.02 49.97 216.44 209.22 123.92"/><polygon class="cls-11" points="52.62 216.44 209.22 125.45 389.7 229.5 233.1 320.5 52.62 216.44"/><path class="cls-1" d="M365.25,314.26c-4.88-2.83-12.87-2.79-17.83.09s-5,7.48-.14,10.3,12.87,2.78,17.84-.08S370.14,317.07,365.25,314.26Z" transform="translate(-24.57 -37.65)"/><path class="cls-12" d="M356.05,325.63a16.36,16.36,0,0,0,8.61-2.25c1.87-1.2,2.93-2.7,2.93-4.09s-1-2.78-2.78-3.91a15.87,15.87,0,0,0-8.32-2.16,16.29,16.29,0,0,0-8.61,2.27c-1.86,1.2-2.93,2.64-2.93,4.08s1,2.77,2.78,3.9A15.48,15.48,0,0,0,356.05,325.63Z" transform="translate(-24.57 -37.65)"/><path class="cls-13" d="M358.22,319.68c1.85-1.19,2.92-2.65,2.92-4.09a3.45,3.45,0,0,0-.64-1.88,18.69,18.69,0,0,0-4-.47,16.47,16.47,0,0,0-8.61,2.27c-1.86,1.2-2.93,2.65-2.93,4.09a3.57,3.57,0,0,0,.64,1.89,18.77,18.77,0,0,0,4,.46A16.4,16.4,0,0,0,358.22,319.68Z" transform="translate(-24.57 -37.65)"/><path class="cls-3" d="M78.51,275.06l-11.35-6.55a4,4,0,0,1-2-3.46v-1a1.63,1.63,0,0,1,1.62-1.63,1.61,1.61,0,0,1,.83.22L79,269.23a4,4,0,0,1,2,3.45v1a1.62,1.62,0,0,1-2.44,1.42Z" transform="translate(-24.57 -37.65)"/><path class="cls-14" d="M77.67,275.54,66.36,269a4,4,0,0,1-2-3.47v-.95A1.63,1.63,0,0,1,66,262.94a1.6,1.6,0,0,1,.8.22l11.35,6.56a4,4,0,0,1,2,3.46v.95a1.63,1.63,0,0,1-1.61,1.65A1.6,1.6,0,0,1,77.67,275.54Z" transform="translate(-24.57 -37.65)"/><path class="cls-15" d="M150.3,201.77a6.34,6.34,0,0,0,3.35-.88,2.12,2.12,0,0,0,1.14-1.59,2,2,0,0,0-1.08-1.52,6.22,6.22,0,0,0-3.24-.84,6.34,6.34,0,0,0-3.35.88,2.1,2.1,0,0,0-1.14,1.59,2,2,0,0,0,1.08,1.52A6.06,6.06,0,0,0,150.3,201.77Z" transform="translate(-24.57 -37.65)"/><path class="cls-16" d="M149.76,201a3.44,3.44,0,0,0,1.77-.46,1.1,1.1,0,0,0,.6-.83,1.08,1.08,0,0,0-.57-.81,3.32,3.32,0,0,0-1.69-.43,3.44,3.44,0,0,0-1.77.46,1.09,1.09,0,0,0-.59.83,1,1,0,0,0,.57.79A3.12,3.12,0,0,0,149.76,201Z" transform="translate(-24.57 -37.65)"/><polygon class="cls-17" points="233.1 320.5 389.7 229.5 389.7 66.4 52.62 65.77 52.62 216.44 233.1 320.5"/><polygon class="cls-18" points="52.62 216.44 0 0.18 435.25 0 389.7 229.5 233.1 322.02 52.62 216.44"/></svg>